<?xml version="1.0" encoding="utf-8"?>
<!-- Generator: Adobe Illustrator 25.4.1, SVG Export Plug-In . SVG Version: 6.00 Build 0)  -->
<svg version="1.0" id="레이어_1" xmlns="http://www.w3.org/2000/svg" xmlns:xlink="http://www.w3.org/1999/xlink" width="222" height="128.13" x="0px"
	 y="0px" viewBox="0 0 162 93.5" style="enable-background:new 0 0 162 93.5;" xml:space="preserve">
<style type="text/css">
	.st0{fill:#FEE46C;}
</style>
<g transform="matrix(1, 0, 0, 1, 2895, 179)">
	<path class="st0" d="M-2868-162h104c4.4,0,8,3.6,8,8v27c0,4.4-3.6,8-8,8h-104c-4.4,0-8-3.6-8-8v-27
		C-2876-158.4-2872.4-162-2868-162z"/>
</g>
<g transform="matrix(1, 0, 0, 1, 2895, 179)">
	<path class="st0" d="M-2863-120.8c0,0,1.4,8.5-7.6,8.6s16.8,7,19.7-7.6S-2863-120.8-2863-120.8z"/>
</g>
<g>
	<path d="M31.5,27.4c0-0.6,0.1-1,0.3-1.3s0.5-0.5,0.9-0.5V26c-0.2,0.1-0.3,0.2-0.4,0.4s-0.1,0.4-0.1,0.7h0.6v1.2h-1.2
		c-0.1,0-0.1,0-0.1-0.1V27.4z M33.2,27.4c0-0.6,0.1-1,0.3-1.3s0.5-0.5,0.9-0.5V26c-0.2,0.1-0.3,0.2-0.4,0.4s-0.1,0.4-0.1,0.7h0.6
		v1.2h-1.2c-0.1,0-0.1,0-0.1-0.1V27.4z"/>
	<path d="M36.4,35.5c-0.1,0-0.2-0.1-0.2-0.2v-8.5c0-0.2,0.1-0.2,0.2-0.2h2.1c1.4,0,2.6,0.4,3.3,1.1c0.8,0.7,1.2,1.9,1.2,3.4
		c0,1.5-0.4,2.6-1.1,3.4c-0.8,0.7-1.9,1.1-3.4,1.1H36.4z M38.7,34.7c0.6,0,1.1-0.1,1.5-0.3c0.4-0.2,0.8-0.4,1-0.7s0.5-0.7,0.6-1.1
		c0.1-0.4,0.2-1,0.2-1.5c0-0.7-0.1-1.2-0.3-1.7c-0.2-0.5-0.4-0.9-0.8-1.2s-0.7-0.5-1.2-0.6c-0.5-0.1-1-0.2-1.6-0.2h-1v7.3H38.7z"/>
	<path d="M49.2,34.7c-0.2,0.3-0.5,0.5-0.9,0.7s-0.8,0.3-1.3,0.3c-0.5,0-0.9-0.1-1.3-0.3s-0.7-0.4-0.9-0.7c-0.2-0.3-0.4-0.6-0.5-1
		c-0.1-0.4-0.2-0.8-0.2-1.2s0.1-0.8,0.2-1.2c0.1-0.4,0.3-0.7,0.5-1c0.2-0.3,0.5-0.5,0.9-0.7s0.8-0.3,1.3-0.3s0.9,0.1,1.3,0.3
		c0.4,0.2,0.7,0.4,0.9,0.7c0.2,0.3,0.4,0.6,0.5,1c0.1,0.4,0.2,0.8,0.2,1.2s-0.1,0.8-0.2,1.2C49.6,34.1,49.4,34.4,49.2,34.7z
		 M47.9,34.7c0.4-0.2,0.6-0.6,0.8-1s0.3-0.8,0.3-1.3c0-0.3,0-0.6-0.1-0.9c-0.1-0.3-0.2-0.6-0.3-0.8c-0.2-0.2-0.4-0.4-0.6-0.6
		C47.6,30.1,47.4,30,47,30s-0.6,0.1-0.9,0.2c-0.2,0.2-0.4,0.3-0.6,0.6c-0.1,0.2-0.3,0.5-0.3,0.8c-0.1,0.3-0.1,0.6-0.1,0.9
		s0,0.6,0.1,0.9c0.1,0.3,0.2,0.6,0.3,0.8s0.3,0.4,0.6,0.6c0.2,0.1,0.5,0.2,0.9,0.2S47.6,34.9,47.9,34.7z"/>
	<path d="M56.4,33.5c-0.2,0.8-0.5,1.3-1,1.7c-0.5,0.4-1.1,0.5-1.8,0.5c-0.5,0-0.9-0.1-1.2-0.3c-0.3-0.2-0.6-0.4-0.8-0.7
		c-0.2-0.3-0.4-0.6-0.5-1s-0.2-0.8-0.2-1.2c0-0.4,0.1-0.8,0.2-1.2c0.1-0.4,0.3-0.7,0.5-1s0.5-0.5,0.9-0.7c0.3-0.2,0.7-0.3,1.2-0.3
		c0.5,0,0.9,0.1,1.3,0.2s0.6,0.4,0.9,0.7s0.4,0.6,0.5,1c0.1,0.4,0.2,0.8,0.2,1.3c0,0.2-0.1,0.2-0.2,0.2h-4.4c0,0.3,0,0.6,0.1,0.9
		c0.1,0.3,0.2,0.5,0.3,0.7c0.2,0.2,0.4,0.4,0.6,0.5c0.2,0.1,0.5,0.2,0.9,0.2c0.4,0,0.7-0.1,1-0.4s0.5-0.6,0.6-1.1H56.4z M55.5,31.9
		c0-0.6-0.2-1-0.5-1.4c-0.3-0.4-0.7-0.5-1.3-0.5c-0.3,0-0.5,0.1-0.7,0.2s-0.4,0.2-0.5,0.4c-0.1,0.2-0.3,0.4-0.3,0.6
		c-0.1,0.2-0.1,0.5-0.2,0.7H55.5z"/>
	<path d="M61.3,31c0-0.2-0.1-0.4-0.1-0.5c-0.1-0.1-0.2-0.2-0.3-0.3c-0.1-0.1-0.3-0.1-0.4-0.2c-0.2,0-0.3,0-0.5,0c-0.2,0-0.3,0-0.5,0
		c-0.1,0-0.3,0.1-0.4,0.2c-0.1,0.1-0.2,0.2-0.3,0.3c-0.1,0.1-0.1,0.3-0.1,0.4c0,0.2,0.1,0.4,0.2,0.5s0.3,0.2,0.5,0.3
		c0.2,0.1,0.5,0.1,0.8,0.2c0.3,0.1,0.7,0.2,1.1,0.3c0.4,0.1,0.7,0.3,0.9,0.6c0.2,0.2,0.3,0.5,0.3,0.9c0,0.4-0.1,0.7-0.2,0.9
		c-0.1,0.3-0.3,0.5-0.6,0.6c-0.2,0.2-0.5,0.3-0.8,0.4c-0.3,0.1-0.6,0.1-1,0.1c-0.3,0-0.5,0-0.8-0.1c-0.3-0.1-0.5-0.2-0.7-0.3
		s-0.4-0.4-0.6-0.6c-0.1-0.2-0.2-0.6-0.2-0.9h1c0,0.2,0.1,0.4,0.2,0.6s0.2,0.3,0.3,0.3c0.1,0.1,0.3,0.1,0.5,0.2s0.4,0,0.6,0
		c0.2,0,0.4,0,0.5-0.1s0.3-0.1,0.5-0.2c0.1-0.1,0.2-0.2,0.3-0.3s0.1-0.3,0.1-0.5c0-0.2,0-0.4-0.1-0.5c-0.1-0.1-0.2-0.2-0.4-0.3
		c-0.2-0.1-0.4-0.1-0.6-0.2c-0.2,0-0.5-0.1-0.7-0.2c-0.2-0.1-0.5-0.1-0.7-0.2c-0.2-0.1-0.4-0.2-0.6-0.3c-0.2-0.1-0.3-0.3-0.4-0.5
		c-0.1-0.2-0.2-0.4-0.2-0.7c0-0.3,0.1-0.6,0.2-0.8s0.3-0.4,0.5-0.5c0.2-0.1,0.5-0.2,0.7-0.3c0.3-0.1,0.5-0.1,0.8-0.1
		c0.3,0,0.6,0,0.8,0.1c0.3,0.1,0.5,0.2,0.7,0.3c0.2,0.1,0.4,0.3,0.5,0.5s0.2,0.5,0.3,0.9H61.3z"/>
	<path d="M71.8,35.5l0-0.7c-0.1,0.1-0.2,0.3-0.4,0.4s-0.3,0.2-0.4,0.3s-0.3,0.1-0.5,0.2c-0.2,0-0.4,0.1-0.7,0.1
		c-0.5,0-0.8-0.1-1.2-0.3c-0.3-0.2-0.6-0.4-0.8-0.7s-0.4-0.6-0.5-1c-0.1-0.4-0.1-0.8-0.1-1.2c0-0.4,0-0.8,0.1-1.2
		c0.1-0.4,0.2-0.7,0.4-1c0.2-0.3,0.5-0.5,0.8-0.7c0.3-0.2,0.7-0.3,1.2-0.3c0.4,0,0.8,0.1,1.1,0.2c0.4,0.2,0.6,0.4,0.9,0.8v-3.7h0.9
		v7.9c0,0.2,0,0.3,0,0.6s0,0.4,0.1,0.5H71.8z M70.7,34.7c0.4-0.2,0.7-0.5,0.8-0.9c0.1-0.4,0.2-0.9,0.2-1.4c0-0.3,0-0.6-0.1-0.9
		c-0.1-0.3-0.2-0.5-0.3-0.8c-0.1-0.2-0.3-0.4-0.6-0.5c-0.2-0.1-0.5-0.2-0.8-0.2c-0.3,0-0.6,0.1-0.8,0.2c-0.2,0.1-0.4,0.3-0.5,0.5
		c-0.1,0.2-0.2,0.5-0.3,0.8c-0.1,0.3-0.1,0.6-0.1,0.9c0,0.3,0,0.6,0.1,0.9c0,0.3,0.1,0.6,0.3,0.8c0.1,0.2,0.3,0.4,0.5,0.6
		s0.5,0.2,0.8,0.2C70.2,34.9,70.5,34.9,70.7,34.7z"/>
	<path d="M75.3,27.6h-1v-1h1V27.6z M75.2,35.5h-0.9v-6.2h0.9V35.5z"/>
	<path d="M80.4,31c0-0.2-0.1-0.4-0.1-0.5c-0.1-0.1-0.2-0.2-0.3-0.3c-0.1-0.1-0.3-0.1-0.4-0.2c-0.2,0-0.3,0-0.5,0c-0.2,0-0.3,0-0.5,0
		c-0.1,0-0.3,0.1-0.4,0.2c-0.1,0.1-0.2,0.2-0.3,0.3c-0.1,0.1-0.1,0.3-0.1,0.4c0,0.2,0.1,0.4,0.2,0.5s0.3,0.2,0.5,0.3
		c0.2,0.1,0.5,0.1,0.8,0.2c0.3,0.1,0.7,0.2,1.1,0.3c0.4,0.1,0.7,0.3,0.9,0.6c0.2,0.2,0.3,0.5,0.3,0.9c0,0.4-0.1,0.7-0.2,0.9
		c-0.1,0.3-0.3,0.5-0.6,0.6c-0.2,0.2-0.5,0.3-0.8,0.4c-0.3,0.1-0.6,0.1-1,0.1c-0.3,0-0.5,0-0.8-0.1c-0.3-0.1-0.5-0.2-0.7-0.3
		s-0.4-0.4-0.6-0.6c-0.1-0.2-0.2-0.6-0.2-0.9h1c0,0.2,0.1,0.4,0.2,0.6s0.2,0.3,0.3,0.3c0.1,0.1,0.3,0.1,0.5,0.2s0.4,0,0.6,0
		c0.2,0,0.4,0,0.5-0.1s0.3-0.1,0.5-0.2c0.1-0.1,0.2-0.2,0.3-0.3s0.1-0.3,0.1-0.5c0-0.2,0-0.4-0.1-0.5c-0.1-0.1-0.2-0.2-0.4-0.3
		c-0.2-0.1-0.4-0.1-0.6-0.2c-0.2,0-0.5-0.1-0.7-0.2c-0.2-0.1-0.5-0.1-0.7-0.2c-0.2-0.1-0.4-0.2-0.6-0.3c-0.2-0.1-0.3-0.3-0.4-0.5
		c-0.1-0.2-0.2-0.4-0.2-0.7c0-0.3,0.1-0.6,0.2-0.8s0.3-0.4,0.5-0.5c0.2-0.1,0.5-0.2,0.7-0.3c0.3-0.1,0.5-0.1,0.8-0.1
		c0.3,0,0.6,0,0.8,0.1c0.3,0.1,0.5,0.2,0.7,0.3c0.2,0.1,0.4,0.3,0.5,0.5s0.2,0.5,0.3,0.9H80.4z"/>
	<path d="M84.1,27.6h-1v-1h1V27.6z M84.1,35.5h-0.9v-6.2h0.9V35.5z"/>
	<path d="M90.8,35.5h-0.9v-3.8c0-0.6-0.1-1-0.3-1.3C89.4,30.1,89,30,88.5,30c-0.2,0-0.4,0-0.6,0.1s-0.4,0.2-0.5,0.4
		c-0.2,0.2-0.3,0.4-0.4,0.6c-0.1,0.2-0.1,0.5-0.1,0.9v3.5H86v-6.1h0.9l0,0.8c0.3-0.4,0.6-0.6,0.9-0.8c0.3-0.1,0.7-0.2,1.1-0.2
		c0.7,0,1.2,0.2,1.5,0.6c0.3,0.4,0.5,0.9,0.5,1.7V35.5z"/>
	<path d="M94.1,35.5h-0.9v-5.3H92v-0.8h1.2v-1.5c0-0.3,0-0.6,0.1-0.8s0.2-0.4,0.3-0.5c0.1-0.1,0.3-0.2,0.5-0.2
		c0.2,0,0.4-0.1,0.6-0.1c0.1,0,0.3,0,0.4,0c0.1,0,0.3,0,0.4,0.1v0.8c-0.1,0-0.2-0.1-0.3-0.1c-0.1,0-0.2,0-0.4,0
		c-0.2,0-0.4,0.1-0.5,0.2c-0.1,0.1-0.2,0.4-0.2,0.8v1.4h1.4v0.8h-1.4V35.5z"/>
	<path d="M101.7,33.5c-0.2,0.8-0.5,1.3-1,1.7c-0.5,0.4-1.1,0.5-1.8,0.5c-0.5,0-0.9-0.1-1.2-0.3c-0.3-0.2-0.6-0.4-0.8-0.7
		c-0.2-0.3-0.4-0.6-0.5-1c-0.1-0.4-0.2-0.8-0.2-1.2c0-0.4,0.1-0.8,0.2-1.2c0.1-0.4,0.3-0.7,0.5-1c0.2-0.3,0.5-0.5,0.9-0.7
		c0.3-0.2,0.7-0.3,1.2-0.3c0.5,0,0.9,0.1,1.3,0.2c0.4,0.2,0.6,0.4,0.9,0.7c0.2,0.3,0.4,0.6,0.5,1c0.1,0.4,0.2,0.8,0.2,1.3
		c0,0.2-0.1,0.2-0.2,0.2h-4.4c0,0.3,0,0.6,0.1,0.9c0.1,0.3,0.2,0.5,0.3,0.7c0.2,0.2,0.4,0.4,0.6,0.5c0.2,0.1,0.5,0.2,0.9,0.2
		c0.4,0,0.7-0.1,1-0.4c0.3-0.3,0.5-0.6,0.6-1.1H101.7z M100.8,31.9c0-0.6-0.2-1-0.5-1.4C100,30.2,99.5,30,99,30
		c-0.3,0-0.5,0.1-0.7,0.2s-0.4,0.2-0.5,0.4c-0.1,0.2-0.3,0.4-0.3,0.6c-0.1,0.2-0.1,0.5-0.2,0.7H100.8z"/>
	<path d="M108.1,33.5c-0.1,0.8-0.4,1.3-0.8,1.7c-0.4,0.4-1,0.5-1.7,0.5c-0.5,0-0.9-0.1-1.2-0.3c-0.3-0.2-0.6-0.4-0.8-0.7
		c-0.2-0.3-0.4-0.6-0.5-1c-0.1-0.4-0.2-0.8-0.2-1.2c0-0.4,0.1-0.8,0.2-1.2c0.1-0.4,0.3-0.7,0.5-1c0.2-0.3,0.5-0.5,0.9-0.7
		c0.3-0.2,0.8-0.3,1.2-0.3c0.3,0,0.6,0.1,0.9,0.2s0.5,0.2,0.8,0.4s0.4,0.4,0.5,0.7c0.1,0.3,0.2,0.6,0.2,0.9h-1
		c0-0.5-0.2-0.9-0.4-1.1c-0.3-0.2-0.6-0.3-1.1-0.3c-0.3,0-0.5,0.1-0.7,0.2s-0.4,0.3-0.5,0.5c-0.1,0.2-0.3,0.5-0.3,0.8
		c-0.1,0.3-0.1,0.6-0.1,1c0,0.4,0,0.7,0.1,1c0.1,0.3,0.2,0.6,0.3,0.8c0.1,0.2,0.3,0.4,0.5,0.5s0.4,0.2,0.7,0.2
		c0.4,0,0.8-0.1,1.1-0.3c0.3-0.2,0.4-0.6,0.5-1.1H108.1z"/>
	<path d="M112.2,35.6c-0.1,0-0.3,0.1-0.4,0.1s-0.3,0-0.4,0c-0.2,0-0.4,0-0.6-0.1c-0.2,0-0.4-0.1-0.5-0.2c-0.1-0.1-0.2-0.3-0.3-0.5
		c-0.1-0.2-0.1-0.5-0.1-0.8v-4h-1.2v-0.8h1.2v-1.7h0.9v1.7h1.4v0.8h-1.4V34c0,0.4,0.1,0.6,0.2,0.8s0.3,0.2,0.5,0.2
		c0.1,0,0.3,0,0.4,0s0.2-0.1,0.3-0.1V35.6z"/>
	<path d="M114.5,27.6h-1v-1h1V27.6z M114.4,35.5h-0.9v-6.2h0.9V35.5z"/>
	<path d="M120.8,34.7c-0.2,0.3-0.5,0.5-0.9,0.7s-0.8,0.3-1.3,0.3c-0.5,0-0.9-0.1-1.3-0.3c-0.4-0.2-0.7-0.4-0.9-0.7
		c-0.2-0.3-0.4-0.6-0.5-1c-0.1-0.4-0.2-0.8-0.2-1.2s0.1-0.8,0.2-1.2c0.1-0.4,0.3-0.7,0.5-1c0.2-0.3,0.5-0.5,0.9-0.7
		c0.4-0.2,0.8-0.3,1.3-0.3s0.9,0.1,1.3,0.3s0.7,0.4,0.9,0.7c0.2,0.3,0.4,0.6,0.5,1c0.1,0.4,0.2,0.8,0.2,1.2s-0.1,0.8-0.2,1.2
		S121,34.4,120.8,34.7z M119.5,34.7c0.4-0.2,0.6-0.6,0.8-1s0.3-0.8,0.3-1.3c0-0.3,0-0.6-0.1-0.9c-0.1-0.3-0.2-0.6-0.3-0.8
		c-0.2-0.2-0.4-0.4-0.6-0.6c-0.2-0.2-0.5-0.2-0.9-0.2s-0.6,0.1-0.9,0.2c-0.2,0.2-0.4,0.3-0.6,0.6c-0.1,0.2-0.3,0.5-0.3,0.8
		c-0.1,0.3-0.1,0.6-0.1,0.9s0,0.6,0.1,0.9c0.1,0.3,0.2,0.6,0.3,0.8c0.1,0.2,0.3,0.4,0.6,0.6c0.2,0.1,0.5,0.2,0.9,0.2
		S119.2,34.9,119.5,34.7z"/>
	<path d="M127.7,35.5h-0.9v-3.8c0-0.6-0.1-1-0.3-1.3c-0.2-0.3-0.6-0.4-1.1-0.4c-0.2,0-0.4,0-0.6,0.1s-0.4,0.2-0.5,0.4
		c-0.2,0.2-0.3,0.4-0.4,0.6c-0.1,0.2-0.1,0.5-0.1,0.9v3.5h-0.9v-6.1h0.9l0,0.8c0.3-0.4,0.6-0.6,0.9-0.8c0.3-0.1,0.7-0.2,1.1-0.2
		c0.7,0,1.2,0.2,1.5,0.6c0.3,0.4,0.5,0.9,0.5,1.7V35.5z"/>
	<path d="M37.6,49.8c0,0.1-0.1,0.1-0.2,0.1h-0.7c-0.1,0-0.1,0-0.2-0.1l-1.5-5l-1.5,5c0,0,0,0.1-0.1,0.1c0,0-0.1,0-0.1,0h-0.7
		c-0.1,0-0.1,0-0.2-0.1l-2.1-6h1L33,49l1.5-5c0-0.1,0.1-0.1,0.2-0.1h0.7c0.1,0,0.1,0,0.1,0s0,0,0.1,0.1l1.5,5l1.8-5.2h1L37.6,49.8z"
		/>
	<path d="M45.3,49.1c-0.2,0.3-0.5,0.5-0.9,0.7c-0.4,0.2-0.8,0.3-1.3,0.3c-0.5,0-0.9-0.1-1.3-0.3c-0.4-0.2-0.7-0.4-0.9-0.7
		c-0.2-0.3-0.4-0.6-0.5-1c-0.1-0.4-0.2-0.8-0.2-1.2s0.1-0.8,0.2-1.2c0.1-0.4,0.3-0.7,0.5-1c0.2-0.3,0.5-0.5,0.9-0.7s0.8-0.3,1.3-0.3
		s0.9,0.1,1.3,0.3c0.4,0.2,0.7,0.4,0.9,0.7c0.2,0.3,0.4,0.6,0.5,1c0.1,0.4,0.2,0.8,0.2,1.2s-0.1,0.8-0.2,1.2
		C45.7,48.5,45.5,48.8,45.3,49.1z M43.9,49.1c0.4-0.2,0.6-0.5,0.8-1c0.2-0.4,0.3-0.8,0.3-1.3c0-0.3,0-0.6-0.1-0.9
		c-0.1-0.3-0.2-0.6-0.3-0.8c-0.2-0.2-0.4-0.4-0.6-0.6c-0.2-0.2-0.5-0.2-0.9-0.2s-0.6,0.1-0.9,0.2c-0.2,0.2-0.4,0.3-0.6,0.6
		c-0.1,0.2-0.3,0.5-0.3,0.8c-0.1,0.3-0.1,0.6-0.1,0.9s0,0.6,0.1,0.9c0.1,0.3,0.2,0.6,0.3,0.8c0.1,0.2,0.3,0.4,0.6,0.6
		c0.2,0.1,0.5,0.2,0.9,0.2S43.7,49.3,43.9,49.1z"/>
	<path d="M48.2,49.9h-0.9v-6.1h0.9l0,0.8c0.2-0.4,0.5-0.6,0.7-0.8c0.3-0.1,0.6-0.2,0.9-0.2c0.1,0,0.2,0,0.3,0c0.1,0,0.2,0,0.3,0v0.9
		c-0.1,0-0.2-0.1-0.2-0.1c-0.1,0-0.2,0-0.3,0c-0.2,0-0.4,0-0.6,0.1c-0.2,0.1-0.4,0.2-0.5,0.3c-0.2,0.1-0.3,0.3-0.4,0.6
		c-0.1,0.2-0.1,0.5-0.1,0.8V49.9z"/>
	<path d="M56.5,49.9h-1.2l-2.9-3.1v3.1h-0.9v-9h0.9v5.2l2.7-2.3h1.2l-3.1,2.6L56.5,49.9z"/>
	<path d="M67.4,49.8c0,0.1-0.1,0.1-0.2,0.1h-0.7c-0.1,0-0.1,0-0.2-0.1l-1.5-5l-1.5,5c0,0,0,0.1-0.1,0.1c0,0-0.1,0-0.1,0h-0.7
		c-0.1,0-0.1,0-0.2-0.1l-2.1-6h1l1.7,5.2l1.5-5c0-0.1,0.1-0.1,0.2-0.1h0.7c0.1,0,0.1,0,0.1,0c0,0,0,0,0.1,0.1l1.5,5l1.8-5.2h1
		L67.4,49.8z"/>
	<path d="M75.6,47.9c-0.2,0.8-0.5,1.3-1,1.7c-0.5,0.4-1.1,0.5-1.8,0.5c-0.5,0-0.9-0.1-1.2-0.3s-0.6-0.4-0.8-0.7s-0.4-0.6-0.5-1
		c-0.1-0.4-0.2-0.8-0.2-1.2c0-0.4,0.1-0.8,0.2-1.2c0.1-0.4,0.3-0.7,0.5-1c0.2-0.3,0.5-0.5,0.9-0.7c0.3-0.2,0.7-0.3,1.2-0.3
		c0.5,0,0.9,0.1,1.3,0.2c0.4,0.2,0.6,0.4,0.9,0.7c0.2,0.3,0.4,0.6,0.5,1c0.1,0.4,0.2,0.8,0.2,1.3c0,0.2-0.1,0.2-0.2,0.2h-4.4
		c0,0.3,0,0.6,0.1,0.9c0.1,0.3,0.2,0.5,0.3,0.7c0.2,0.2,0.4,0.4,0.6,0.5c0.2,0.1,0.5,0.2,0.9,0.2c0.4,0,0.7-0.1,1-0.4
		c0.3-0.3,0.5-0.6,0.6-1.1H75.6z M74.7,46.3c0-0.6-0.2-1-0.5-1.4c-0.3-0.4-0.7-0.5-1.3-0.5c-0.3,0-0.5,0.1-0.7,0.2s-0.4,0.2-0.5,0.4
		c-0.1,0.2-0.3,0.4-0.3,0.6c-0.1,0.2-0.1,0.5-0.2,0.7H74.7z"/>
	<path d="M78.2,49.9h-0.9v-9h0.9V49.9z"/>
	<path d="M81,49.9H80v-9H81V49.9z"/>
	<path d="M84.9,47.7H84c0-0.2,0-0.4,0-0.5c0-0.2,0-0.4,0-0.5c0-0.4,0.1-0.8,0.3-1.1s0.4-0.6,0.7-0.8c0.3-0.3,0.6-0.6,0.8-0.9
		s0.3-0.7,0.3-1c0-0.4-0.1-0.8-0.3-1c-0.2-0.3-0.6-0.4-1-0.4c-0.3,0-0.7,0.1-1,0.2c-0.3,0.1-0.6,0.3-0.8,0.5l-0.4-0.6
		c0.3-0.3,0.6-0.5,1-0.7c0.4-0.2,0.8-0.2,1.4-0.2c0.3,0,0.6,0.1,0.9,0.2c0.3,0.1,0.5,0.3,0.7,0.5c0.2,0.2,0.3,0.4,0.4,0.7
		c0.1,0.3,0.2,0.6,0.2,0.9c0,0.2,0,0.5-0.1,0.7c-0.1,0.2-0.2,0.4-0.3,0.6s-0.2,0.4-0.4,0.5c-0.2,0.2-0.3,0.3-0.5,0.4
		c-0.3,0.2-0.5,0.5-0.7,0.8c-0.2,0.3-0.3,0.7-0.3,1.1V47.7z M85,50.2h-1.2V49H85V50.2z"/>
	<path d="M89.6,41.1c0,0.6-0.1,1-0.3,1.3c-0.2,0.3-0.5,0.5-0.9,0.5v-0.4c0.2-0.1,0.3-0.2,0.4-0.4s0.1-0.4,0.1-0.7h-0.6v-1.2h1.2
		c0.1,0,0.1,0,0.1,0.1V41.1z M91.4,41.1c0,0.6-0.1,1-0.3,1.3c-0.2,0.3-0.5,0.5-0.9,0.5v-0.4c0.2-0.1,0.3-0.2,0.4-0.4
		s0.1-0.4,0.1-0.7H90v-1.2h1.2c0.1,0,0.1,0,0.1,0.1V41.1z"/>
</g>
</svg>
