<svg xmlns="http://www.w3.org/2000/svg" width="100" height="28.419" viewBox="0 0 100 28.419"><g transform="translate(-20.5 -13)"><g transform="translate(54.902 19.98)"><path d="M108.094,360.977a8.2,8.2,0,1,1,8.2,7.977A7.857,7.857,0,0,1,108.094,360.977Zm13.009,0a4.81,4.81,0,1,0-4.809,4.921A4.711,4.711,0,0,0,121.1,360.977Z" transform="translate(-108.094 -353)"/><path d="M191,366.963h-5.89l-1.062,2.945h-3.5l5.89-15.19h3.523l5.89,15.19h-3.784Zm-1.044-2.945-1.9-5.293-1.9,5.293Z" transform="translate(-164.034 -354.326)"/><path d="M262.766,358.04h-3.5a2.521,2.521,0,0,0-2.814-2.125c-1.584,0-2.46.634-2.46,1.547,0,1.137,1.174,1.528,4.138,2.143,3.5.727,4.7,2.46,4.7,4.734,0,2.908-2.74,4.678-6.132,4.678-3.746,0-6.486-2.032-6.635-5.275h3.485c.186,1.454,1.454,2.423,3.392,2.423,1.379,0,2.4-.689,2.4-1.677,0-1.211-1.025-1.7-3.728-2.2-3.3-.615-5.088-1.976-5.088-4.827,0-2.74,2.721-4.38,6.151-4.38C260.064,353.082,262.6,355.151,262.766,358.04Z" transform="translate(-217.699 -353.063)"/><path d="M319.731,354.717v15.19h-3.392v-15.19Z" transform="translate(-268.876 -354.326)"/><path d="M352.6,358.04h-3.5a2.521,2.521,0,0,0-2.814-2.125c-1.584,0-2.46.634-2.46,1.547,0,1.137,1.174,1.528,4.137,2.143,3.5.727,4.7,2.46,4.7,4.734,0,2.908-2.74,4.678-6.132,4.678-3.746,0-6.486-2.032-6.635-5.275h3.485c.186,1.454,1.454,2.423,3.392,2.423,1.379,0,2.4-.689,2.4-1.677,0-1.211-1.025-1.7-3.728-2.2-3.3-.615-5.088-1.976-5.088-4.827,0-2.74,2.721-4.38,6.151-4.38C349.9,353.082,352.434,355.151,352.6,358.04Z" transform="translate(-287.059 -353.063)"/></g><g transform="translate(20.5 13)"><g transform="translate(0)"><path d="M0,0H1.87V1.87H0Z" transform="translate(14.957 16.079)"/><rect width="1.87" height="1.87" transform="translate(16.827 19.445)"/><g transform="translate(14.957 19.445)"><rect width="2.991" height="2.991" transform="translate(2.991 2.991)"/><path d="M285.318,228.263v1.87h3.365v5.235h-5.235v-5.235h-1.87v7.1h8.974v-1.87h0v-7.1Z" transform="translate(-281.579 -228.263)"/></g><path d="M322.921,173v1.87h-1.87v1.87h3.365v-1.87h1.87V173Z" transform="translate(-302.355 -158.79)"/><path d="M135.65,23l-11.966,7.1v14.21l11.966,7.1v-8.6l-4.861-2.807V34.4L135.65,31.6l4.861,2.807V37.21h3.739V35.34h3.365V30.1Z" transform="translate(-123.684 -23)"/></g></g></g></svg>