<?xml version="1.0" encoding="utf-8"?>
<!-- Generator: Adobe Illustrator 25.4.1, SVG Export Plug-In . SVG Version: 6.00 Build 0)  -->
<svg version="1.0" id="레이어_1" xmlns="http://www.w3.org/2000/svg" xmlns:xlink="http://www.w3.org/1999/xlink" width="202" height="107.39" viewBox="0 0 142 75.5" style="enable-background:new 0 0 142 75.5;" xml:space="preserve">
<style type="text/css">
	.st0{fill:#FEED9D;}
	.st1{opacity:0.6;enable-background:new    ;}
	 <rect width="118" height="43" rx="8" transform="translate(10 8)" fill="#feed9d"/>
</style>

<g>
	<g transform="matrix(1, 0, 0, 1, 2974, 130)">
		<path class="st0" d="M-2956-122h102c4.4,0,8,3.6,8,8v27c0,4.4-3.6,8-8,8h-102c-4.4,0-8-3.6-8-8v-27
			C-2964-118.4-2960.4-122-2956-122z"/>
	</g>
	<g transform="matrix(1, 0, 0, 1, 2974, 130)">
		<path class="st0" d="M-2859-80.8c0,0-1.4,8.5,7.6,8.6s-16.8,7-19.7-7.6S-2859-80.8-2859-80.8z"/>
	</g>
	
	<g class="st1">
		<path d="M20.7,19c0-0.6,0.1-1,0.3-1.3s0.5-0.5,0.9-0.5v0.4c-0.2,0.1-0.3,0.2-0.4,0.4c-0.1,0.2-0.1,0.4-0.1,0.7H22v1.2h-1.2
			c-0.1,0-0.1,0-0.1-0.1V19z M22.4,19c0-0.6,0.1-1,0.3-1.3s0.5-0.5,0.9-0.5v0.4c-0.2,0.1-0.3,0.2-0.4,0.4c-0.1,0.2-0.1,0.4-0.1,0.7
			h0.6v1.2h-1.2c-0.1,0-0.1,0-0.1-0.1V19z"/>
		<path d="M33.6,26.9c0,0.1-0.1,0.1-0.2,0.1h-0.8c-0.1,0-0.2,0-0.2-0.1l-2.2-7.7l-2.2,7.7c0,0.1-0.1,0.1-0.2,0.1h-0.8
			c-0.1,0-0.2,0-0.2-0.1l-2.5-8.8h1l2.1,7.8l2.2-7.7c0-0.1,0.1-0.1,0.2-0.1h0.8c0.1,0,0.2,0,0.2,0.1l2.2,7.7l2.1-7.8h1L33.6,26.9z"
			/>
		<path d="M42.2,27.1h-0.9v-3.8c0-0.6-0.1-1-0.4-1.3c-0.3-0.3-0.6-0.4-1.1-0.4c-0.2,0-0.4,0-0.6,0.1c-0.2,0.1-0.4,0.2-0.5,0.4
			c-0.2,0.2-0.3,0.4-0.4,0.6s-0.1,0.5-0.1,0.9v3.5h-0.9v-9h0.9v3.7c0.3-0.4,0.6-0.6,0.9-0.8c0.3-0.1,0.7-0.2,1.1-0.2
			c0.7,0,1.2,0.2,1.6,0.6s0.6,0.9,0.6,1.7V27.1z"/>
		<path d="M49,25.1c-0.2,0.8-0.5,1.3-1,1.7c-0.5,0.4-1.1,0.5-1.8,0.5c-0.5,0-0.9-0.1-1.2-0.3s-0.6-0.4-0.8-0.7
			c-0.2-0.3-0.4-0.6-0.5-1s-0.2-0.8-0.2-1.2c0-0.4,0.1-0.8,0.2-1.2c0.1-0.4,0.3-0.7,0.5-1c0.2-0.3,0.5-0.5,0.9-0.7
			c0.3-0.2,0.7-0.3,1.2-0.3c0.5,0,0.9,0.1,1.3,0.2c0.4,0.2,0.6,0.4,0.9,0.7s0.4,0.6,0.5,1c0.1,0.4,0.2,0.8,0.2,1.3
			c0,0.2-0.1,0.2-0.2,0.2h-4.4c0,0.3,0,0.6,0.1,0.9c0.1,0.3,0.2,0.5,0.3,0.7c0.2,0.2,0.4,0.4,0.6,0.5c0.2,0.1,0.5,0.2,0.9,0.2
			c0.4,0,0.7-0.1,1-0.4c0.3-0.3,0.5-0.6,0.6-1.1H49z M48.1,23.5c0-0.6-0.2-1-0.5-1.4c-0.3-0.4-0.7-0.5-1.3-0.5
			c-0.3,0-0.5,0.1-0.7,0.2s-0.4,0.2-0.5,0.4s-0.3,0.4-0.3,0.6c-0.1,0.2-0.1,0.5-0.2,0.7H48.1z"/>
		<path d="M55.5,27.1h-0.9v-3.8c0-0.6-0.1-1-0.3-1.3s-0.6-0.4-1.1-0.4c-0.2,0-0.4,0-0.6,0.1c-0.2,0.1-0.4,0.2-0.5,0.4
			c-0.2,0.2-0.3,0.4-0.4,0.6s-0.1,0.5-0.1,0.9v3.5h-0.9V21h0.9l0,0.8c0.3-0.4,0.6-0.6,0.9-0.8c0.3-0.1,0.7-0.2,1.1-0.2
			c0.7,0,1.2,0.2,1.5,0.6c0.3,0.4,0.5,0.9,0.5,1.7V27.1z"/>
		<path d="M67.3,27c0,0.1-0.1,0.1-0.2,0.1h-0.7c-0.1,0-0.1,0-0.2-0.1l-1.5-5l-1.5,5c0,0,0,0.1-0.1,0.1c0,0-0.1,0-0.1,0h-0.7
			c-0.1,0-0.1,0-0.2-0.1L60,21h1l1.7,5.2l1.5-5c0-0.1,0.1-0.1,0.2-0.1h0.7c0.1,0,0.1,0,0.1,0c0,0,0,0,0.1,0.1l1.5,5l1.8-5.2h1
			L67.3,27z"/>
		<path d="M74,27.1l0-0.7c-0.2,0.2-0.4,0.4-0.8,0.6c-0.3,0.2-0.7,0.3-1.1,0.3c-0.3,0-0.6,0-0.8-0.1s-0.5-0.2-0.7-0.4
			c-0.2-0.2-0.3-0.4-0.4-0.6C70,25.9,70,25.7,70,25.4c0-0.4,0.1-0.8,0.3-1.1c0.2-0.3,0.5-0.5,0.9-0.7c0.2-0.1,0.4-0.2,0.7-0.2
			c0.2,0,0.5-0.1,0.7-0.1s0.5,0,0.7,0c0.2,0,0.4,0,0.6,0v-0.4c0-0.5-0.2-0.8-0.4-1c-0.2-0.2-0.6-0.3-1-0.3c-0.4,0-0.7,0.1-0.9,0.2
			c-0.2,0.1-0.4,0.4-0.4,0.9h-1c0-0.3,0.1-0.6,0.2-0.8c0.1-0.2,0.3-0.4,0.5-0.6c0.2-0.2,0.5-0.3,0.7-0.3c0.3-0.1,0.6-0.1,0.9-0.1
			c0.7,0,1.2,0.2,1.6,0.5c0.4,0.3,0.6,0.9,0.6,1.6v3.3c0,0.1,0,0.3,0,0.5s0,0.3,0,0.5H74z M73.9,25c0-0.3,0.1-0.6,0.1-0.9
			c-0.2,0-0.3,0-0.5,0c-0.2,0-0.4,0-0.6,0c-0.2,0-0.4,0-0.7,0.1c-0.2,0-0.4,0.1-0.6,0.2c-0.2,0.1-0.3,0.2-0.4,0.4
			c-0.1,0.2-0.2,0.4-0.2,0.6c0,0.4,0.1,0.7,0.4,0.9c0.2,0.2,0.5,0.3,0.9,0.3c0.3,0,0.5,0,0.7-0.1c0.3-0.1,0.5-0.3,0.7-0.5
			C73.7,25.6,73.8,25.3,73.9,25z"/>
		<path d="M79.9,22.6c0-0.2-0.1-0.4-0.1-0.5s-0.2-0.2-0.3-0.3s-0.3-0.1-0.4-0.2c-0.2,0-0.3,0-0.5,0c-0.2,0-0.3,0-0.5,0
			c-0.1,0-0.3,0.1-0.4,0.2c-0.1,0.1-0.2,0.2-0.3,0.3c-0.1,0.1-0.1,0.3-0.1,0.4c0,0.2,0.1,0.4,0.2,0.5s0.3,0.2,0.5,0.3
			c0.2,0.1,0.5,0.1,0.8,0.2c0.3,0.1,0.7,0.2,1.1,0.3c0.4,0.1,0.7,0.3,0.9,0.6c0.2,0.2,0.3,0.5,0.3,0.9c0,0.4-0.1,0.7-0.2,0.9
			c-0.1,0.3-0.3,0.5-0.6,0.6c-0.2,0.2-0.5,0.3-0.8,0.4s-0.6,0.1-1,0.1c-0.3,0-0.5,0-0.8-0.1c-0.3-0.1-0.5-0.2-0.7-0.3
			s-0.4-0.4-0.6-0.6c-0.1-0.2-0.2-0.6-0.2-0.9h1c0,0.2,0.1,0.4,0.2,0.6s0.2,0.3,0.3,0.3c0.1,0.1,0.3,0.1,0.5,0.2c0.2,0,0.4,0,0.6,0
			c0.2,0,0.4,0,0.5-0.1s0.3-0.1,0.5-0.2c0.1-0.1,0.2-0.2,0.3-0.3c0.1-0.1,0.1-0.3,0.1-0.5c0-0.2,0-0.4-0.1-0.5
			c-0.1-0.1-0.2-0.2-0.4-0.3s-0.4-0.1-0.6-0.2s-0.5-0.1-0.7-0.2c-0.2-0.1-0.5-0.1-0.7-0.2c-0.2-0.1-0.4-0.2-0.6-0.3
			c-0.2-0.1-0.3-0.3-0.4-0.5c-0.1-0.2-0.2-0.4-0.2-0.7c0-0.3,0.1-0.6,0.2-0.8s0.3-0.4,0.5-0.5s0.5-0.2,0.7-0.3
			c0.3-0.1,0.5-0.1,0.8-0.1c0.3,0,0.6,0,0.8,0.1c0.3,0.1,0.5,0.2,0.7,0.3s0.4,0.3,0.5,0.5c0.1,0.2,0.2,0.5,0.3,0.9H79.9z"/>
		<path d="M89,27.2c-0.1,0-0.3,0.1-0.4,0.1c-0.1,0-0.3,0-0.4,0c-0.2,0-0.4,0-0.6-0.1c-0.2,0-0.4-0.1-0.5-0.2s-0.2-0.3-0.3-0.5
			c-0.1-0.2-0.1-0.5-0.1-0.8v-4h-1.2V21h1.2v-1.7h0.9V21h1.4v0.8h-1.4v3.8c0,0.4,0.1,0.6,0.2,0.8s0.3,0.2,0.5,0.2c0.1,0,0.3,0,0.4,0
			c0.1,0,0.2-0.1,0.3-0.1V27.2z"/>
		<path d="M95.2,27.1h-0.9v-3.8c0-0.6-0.1-1-0.4-1.3c-0.3-0.3-0.6-0.4-1.1-0.4c-0.2,0-0.4,0-0.6,0.1c-0.2,0.1-0.4,0.2-0.5,0.4
			c-0.2,0.2-0.3,0.4-0.4,0.6c-0.1,0.2-0.2,0.5-0.2,0.9v3.5h-0.9v-9h0.9v3.7c0.3-0.4,0.6-0.6,0.9-0.8c0.3-0.1,0.7-0.2,1.1-0.2
			c0.7,0,1.2,0.2,1.6,0.6c0.4,0.4,0.6,0.9,0.6,1.7V27.1z"/>
		<path d="M98,19.2h-1v-1h1V19.2z M97.9,27.1H97v-6.2h0.9V27.1z"/>
		<path d="M103.1,22.6c0-0.2-0.1-0.4-0.1-0.5s-0.2-0.2-0.3-0.3s-0.3-0.1-0.4-0.2c-0.2,0-0.3,0-0.5,0c-0.2,0-0.3,0-0.5,0
			c-0.1,0-0.3,0.1-0.4,0.2c-0.1,0.1-0.2,0.2-0.3,0.3c-0.1,0.1-0.1,0.3-0.1,0.4c0,0.2,0.1,0.4,0.2,0.5s0.3,0.2,0.5,0.3
			c0.2,0.1,0.5,0.1,0.8,0.2c0.3,0.1,0.7,0.2,1.1,0.3c0.4,0.1,0.7,0.3,0.9,0.6c0.2,0.2,0.3,0.5,0.3,0.9c0,0.4-0.1,0.7-0.2,0.9
			c-0.1,0.3-0.3,0.5-0.6,0.6c-0.2,0.2-0.5,0.3-0.8,0.4s-0.6,0.1-1,0.1c-0.3,0-0.5,0-0.8-0.1c-0.3-0.1-0.5-0.2-0.7-0.3
			s-0.4-0.4-0.6-0.6c-0.1-0.2-0.2-0.6-0.2-0.9h1c0,0.2,0.1,0.4,0.2,0.6s0.2,0.3,0.3,0.3c0.1,0.1,0.3,0.1,0.5,0.2c0.2,0,0.4,0,0.6,0
			c0.2,0,0.4,0,0.5-0.1s0.3-0.1,0.5-0.2c0.1-0.1,0.2-0.2,0.3-0.3c0.1-0.1,0.1-0.3,0.1-0.5c0-0.2,0-0.4-0.1-0.5
			c-0.1-0.1-0.2-0.2-0.4-0.3s-0.4-0.1-0.6-0.2s-0.5-0.1-0.7-0.2c-0.2-0.1-0.5-0.1-0.7-0.2c-0.2-0.1-0.4-0.2-0.6-0.3
			c-0.2-0.1-0.3-0.3-0.4-0.5c-0.1-0.2-0.2-0.4-0.2-0.7c0-0.3,0.1-0.6,0.2-0.8s0.3-0.4,0.5-0.5s0.5-0.2,0.7-0.3
			c0.3-0.1,0.5-0.1,0.8-0.1c0.3,0,0.6,0,0.8,0.1c0.3,0.1,0.5,0.2,0.7,0.3s0.4,0.3,0.5,0.5c0.1,0.2,0.2,0.5,0.3,0.9H103.1z"/>
		<path d="M21.2,41.8h-0.9v-8.5h0.9l0,0.8c0.2-0.3,0.5-0.6,0.9-0.8c0.4-0.2,0.7-0.3,1.1-0.3c0.5,0,0.9,0.1,1.2,0.3s0.6,0.4,0.8,0.7
			c0.2,0.3,0.4,0.6,0.5,1c0.1,0.4,0.1,0.8,0.1,1.2c0,0.4,0,0.8-0.1,1.2c-0.1,0.4-0.2,0.7-0.5,1c-0.2,0.3-0.5,0.5-0.8,0.7
			c-0.3,0.2-0.7,0.3-1.2,0.3c-0.5,0-0.9-0.1-1.2-0.3s-0.6-0.4-0.8-0.7l0,0.9V41.8z M23.8,38.7c0.2-0.1,0.3-0.3,0.4-0.4
			c0.1-0.2,0.2-0.4,0.3-0.6c0.1-0.2,0.1-0.4,0.1-0.6c0-0.2,0-0.4,0-0.7c0-0.3,0-0.6-0.1-0.9s-0.2-0.5-0.3-0.8
			c-0.1-0.2-0.3-0.4-0.5-0.5C23.5,34,23.3,34,22.9,34c-0.3,0-0.6,0.1-0.8,0.2c-0.2,0.1-0.4,0.3-0.6,0.5s-0.2,0.5-0.3,0.8
			c-0.1,0.3-0.1,0.6-0.1,0.9c0,0.4,0,0.7,0.1,1c0.1,0.3,0.2,0.6,0.3,0.8c0.1,0.2,0.3,0.4,0.6,0.6c0.2,0.1,0.5,0.2,0.9,0.2
			C23.3,38.9,23.6,38.8,23.8,38.7z"/>
		<path d="M28.1,39.5h-0.9v-9h0.9V39.5z"/>
		<path d="M33.4,39.5l0-0.7c-0.2,0.2-0.4,0.4-0.8,0.6c-0.3,0.2-0.7,0.3-1.1,0.3c-0.3,0-0.6,0-0.8-0.1s-0.5-0.2-0.7-0.4
			c-0.2-0.2-0.3-0.4-0.4-0.6s-0.2-0.5-0.2-0.8c0-0.4,0.1-0.8,0.3-1.1c0.2-0.3,0.5-0.5,0.9-0.7c0.2-0.1,0.4-0.2,0.7-0.2
			c0.2,0,0.5-0.1,0.7-0.1s0.5,0,0.7,0s0.4,0,0.6,0v-0.4c0-0.5-0.2-0.8-0.4-1c-0.2-0.2-0.6-0.3-1-0.3c-0.4,0-0.7,0.1-0.9,0.2
			c-0.2,0.1-0.4,0.4-0.4,0.9h-1c0-0.3,0.1-0.6,0.2-0.8c0.1-0.2,0.3-0.4,0.5-0.6c0.2-0.2,0.5-0.3,0.7-0.3c0.3-0.1,0.6-0.1,0.9-0.1
			c0.7,0,1.2,0.2,1.6,0.5c0.4,0.3,0.6,0.9,0.6,1.6v3.3c0,0.1,0,0.3,0,0.5c0,0.2,0,0.3,0,0.5H33.4z M33.3,37.4c0-0.3,0.1-0.6,0.1-0.9
			c-0.2,0-0.3,0-0.5,0c-0.2,0-0.4,0-0.6,0c-0.2,0-0.4,0-0.7,0.1s-0.4,0.1-0.6,0.2c-0.2,0.1-0.3,0.2-0.4,0.4s-0.2,0.4-0.2,0.6
			c0,0.4,0.1,0.7,0.4,0.9c0.2,0.2,0.5,0.3,0.9,0.3c0.3,0,0.5,0,0.7-0.1c0.3-0.1,0.5-0.3,0.7-0.5C33.1,38,33.2,37.7,33.3,37.4z"/>
		<path d="M40.7,37.5c-0.1,0.8-0.4,1.3-0.8,1.7c-0.4,0.4-1,0.5-1.7,0.5c-0.5,0-0.9-0.1-1.2-0.3c-0.3-0.2-0.6-0.4-0.8-0.7
			s-0.4-0.6-0.5-1c-0.1-0.4-0.2-0.8-0.2-1.2c0-0.4,0.1-0.8,0.2-1.2c0.1-0.4,0.3-0.7,0.5-1c0.2-0.3,0.5-0.5,0.9-0.7
			c0.3-0.2,0.8-0.3,1.2-0.3c0.3,0,0.6,0,0.9,0.1c0.3,0.1,0.5,0.2,0.8,0.4c0.2,0.2,0.4,0.4,0.5,0.7c0.1,0.3,0.2,0.6,0.2,0.9h-1
			c0-0.5-0.2-0.9-0.4-1.1C39,34.1,38.7,34,38.2,34c-0.3,0-0.5,0.1-0.7,0.2s-0.4,0.3-0.5,0.5s-0.3,0.5-0.3,0.8s-0.1,0.6-0.1,1
			c0,0.4,0,0.7,0.1,1c0.1,0.3,0.2,0.6,0.3,0.8c0.1,0.2,0.3,0.4,0.5,0.5s0.4,0.2,0.7,0.2c0.4,0,0.8-0.1,1.1-0.3
			c0.3-0.2,0.4-0.6,0.5-1.1H40.7z"/>
		<path d="M47,37.5c-0.2,0.8-0.5,1.3-1,1.7c-0.5,0.4-1.1,0.5-1.8,0.5c-0.5,0-0.9-0.1-1.2-0.3s-0.6-0.4-0.8-0.7
			c-0.2-0.3-0.4-0.6-0.5-1s-0.2-0.8-0.2-1.2c0-0.4,0.1-0.8,0.2-1.2c0.1-0.4,0.3-0.7,0.5-1c0.2-0.3,0.5-0.5,0.9-0.7
			c0.3-0.2,0.7-0.3,1.2-0.3c0.5,0,0.9,0.1,1.3,0.2c0.4,0.2,0.6,0.4,0.9,0.7s0.4,0.6,0.5,1C47,35.5,47,36,47,36.4
			c0,0.2-0.1,0.2-0.2,0.2h-4.4c0,0.3,0,0.6,0.1,0.9c0.1,0.3,0.2,0.5,0.3,0.7c0.2,0.2,0.4,0.4,0.6,0.5c0.2,0.1,0.5,0.2,0.9,0.2
			c0.4,0,0.7-0.1,1-0.4c0.3-0.3,0.5-0.6,0.6-1.1H47z M46,35.9c0-0.6-0.2-1-0.5-1.4c-0.3-0.4-0.7-0.5-1.3-0.5c-0.3,0-0.5,0.1-0.7,0.2
			s-0.4,0.2-0.5,0.4s-0.3,0.4-0.3,0.6c-0.1,0.2-0.1,0.5-0.2,0.7H46z"/>
		<path d="M56.3,39.5l0-0.7c-0.1,0.1-0.2,0.3-0.4,0.4c-0.1,0.1-0.3,0.2-0.4,0.3c-0.2,0.1-0.3,0.1-0.5,0.2c-0.2,0-0.4,0.1-0.7,0.1
			c-0.5,0-0.8-0.1-1.2-0.3c-0.3-0.2-0.6-0.4-0.8-0.7c-0.2-0.3-0.4-0.6-0.5-1c-0.1-0.4-0.1-0.8-0.1-1.2c0-0.4,0-0.8,0.1-1.2
			c0.1-0.4,0.2-0.7,0.4-1s0.5-0.5,0.8-0.7s0.7-0.3,1.2-0.3c0.4,0,0.8,0.1,1.1,0.2c0.4,0.2,0.6,0.4,0.9,0.8v-3.7h0.9v7.9
			c0,0.2,0,0.3,0,0.6c0,0.2,0,0.4,0.1,0.5H56.3z M55.2,38.7c0.4-0.2,0.6-0.5,0.8-0.9c0.1-0.4,0.2-0.9,0.2-1.4c0-0.3,0-0.6-0.1-0.9
			c-0.1-0.3-0.2-0.5-0.3-0.8s-0.3-0.4-0.6-0.5C55,34,54.7,34,54.4,34c-0.3,0-0.6,0.1-0.8,0.2c-0.2,0.1-0.4,0.3-0.5,0.5
			c-0.1,0.2-0.2,0.5-0.3,0.8s-0.1,0.6-0.1,0.9c0,0.3,0,0.6,0.1,0.9c0,0.3,0.1,0.6,0.3,0.8s0.3,0.4,0.5,0.6c0.2,0.2,0.5,0.2,0.8,0.2
			C54.7,38.9,55,38.8,55.2,38.7z"/>
		<path d="M59.8,31.6h-1v-1h1V31.6z M59.8,39.5h-0.9v-6.2h0.9V39.5z"/>
		<path d="M64.9,35c0-0.2-0.1-0.4-0.1-0.5s-0.2-0.2-0.3-0.3S64.2,34,64.1,34c-0.2,0-0.3,0-0.5,0c-0.2,0-0.3,0-0.5,0
			c-0.1,0-0.3,0.1-0.4,0.2c-0.1,0.1-0.2,0.2-0.3,0.3c-0.1,0.1-0.1,0.3-0.1,0.4c0,0.2,0.1,0.4,0.2,0.5s0.3,0.2,0.5,0.3
			c0.2,0.1,0.5,0.1,0.8,0.2c0.3,0.1,0.7,0.2,1.1,0.3c0.4,0.1,0.7,0.3,0.9,0.6c0.2,0.2,0.3,0.5,0.3,0.9c0,0.4-0.1,0.7-0.2,0.9
			c-0.1,0.3-0.3,0.5-0.6,0.6c-0.2,0.2-0.5,0.3-0.8,0.4s-0.6,0.1-1,0.1c-0.3,0-0.5,0-0.8-0.1c-0.3-0.1-0.5-0.2-0.7-0.3
			s-0.4-0.4-0.6-0.6c-0.1-0.2-0.2-0.6-0.2-0.9h1c0,0.2,0.1,0.4,0.2,0.6s0.2,0.3,0.3,0.3c0.1,0.1,0.3,0.1,0.5,0.2c0.2,0,0.4,0,0.6,0
			c0.2,0,0.4,0,0.5-0.1s0.3-0.1,0.5-0.2c0.1-0.1,0.2-0.2,0.3-0.3c0.1-0.1,0.1-0.3,0.1-0.5c0-0.2,0-0.4-0.1-0.5
			c-0.1-0.1-0.2-0.2-0.4-0.3s-0.4-0.1-0.6-0.2s-0.5-0.1-0.7-0.2c-0.2-0.1-0.5-0.1-0.7-0.2c-0.2-0.1-0.4-0.2-0.6-0.3
			c-0.2-0.1-0.3-0.3-0.4-0.5c-0.1-0.2-0.2-0.4-0.2-0.7c0-0.3,0.1-0.6,0.2-0.8s0.3-0.4,0.5-0.5s0.5-0.2,0.7-0.3
			c0.3-0.1,0.5-0.1,0.8-0.1c0.3,0,0.6,0,0.8,0.1c0.3,0.1,0.5,0.2,0.7,0.3s0.4,0.3,0.5,0.5c0.1,0.2,0.2,0.5,0.3,0.9H64.9z"/>
		<path d="M68.7,31.6h-1v-1h1V31.6z M68.6,39.5h-0.9v-6.2h0.9V39.5z"/>
		<path d="M75.3,39.5h-0.9v-3.8c0-0.6-0.1-1-0.3-1.3C73.9,34.1,73.5,34,73,34c-0.2,0-0.4,0-0.6,0.1s-0.4,0.2-0.5,0.4
			c-0.2,0.2-0.3,0.4-0.4,0.6c-0.1,0.2-0.1,0.5-0.1,0.9v3.5h-0.9v-6.1h0.9l0,0.8c0.3-0.4,0.6-0.6,0.9-0.8c0.3-0.1,0.7-0.2,1.1-0.2
			c0.7,0,1.2,0.2,1.5,0.6c0.3,0.4,0.5,0.9,0.5,1.7V39.5z"/>
		<path d="M78.6,39.5h-0.9v-5.3h-1.2v-0.8h1.2v-1.5c0-0.3,0-0.6,0.1-0.8c0.1-0.2,0.2-0.4,0.3-0.5s0.3-0.2,0.5-0.2
			c0.2,0,0.4-0.1,0.6-0.1c0.1,0,0.3,0,0.4,0c0.1,0,0.3,0.1,0.4,0.1v0.8c-0.1,0-0.2-0.1-0.3-0.1c-0.1,0-0.2,0-0.4,0
			c-0.2,0-0.4,0.1-0.5,0.2c-0.1,0.1-0.2,0.4-0.2,0.8v1.4h1.4v0.8h-1.4V39.5z"/>
		<path d="M86.2,37.5c-0.2,0.8-0.5,1.3-1,1.7c-0.5,0.4-1.1,0.5-1.8,0.5c-0.5,0-0.9-0.1-1.2-0.3s-0.6-0.4-0.8-0.7s-0.4-0.6-0.5-1
			c-0.1-0.4-0.2-0.8-0.2-1.2c0-0.4,0.1-0.8,0.2-1.2c0.1-0.4,0.3-0.7,0.5-1c0.2-0.3,0.5-0.5,0.9-0.7c0.3-0.2,0.7-0.3,1.2-0.3
			c0.5,0,0.9,0.1,1.3,0.2c0.4,0.2,0.6,0.4,0.9,0.7c0.2,0.3,0.4,0.6,0.5,1c0.1,0.4,0.2,0.8,0.2,1.3c0,0.2-0.1,0.2-0.2,0.2h-4.4
			c0,0.3,0,0.6,0.1,0.9c0.1,0.3,0.2,0.5,0.3,0.7c0.2,0.2,0.4,0.4,0.6,0.5c0.2,0.1,0.5,0.2,0.9,0.2c0.4,0,0.7-0.1,1-0.4
			c0.3-0.3,0.5-0.6,0.6-1.1H86.2z M85.3,35.9c0-0.6-0.2-1-0.5-1.4C84.5,34.1,84,34,83.5,34c-0.3,0-0.5,0.1-0.7,0.2s-0.4,0.2-0.5,0.4
			c-0.1,0.2-0.3,0.4-0.3,0.6c-0.1,0.2-0.1,0.5-0.2,0.7H85.3z"/>
		<path d="M92.6,37.5c-0.1,0.8-0.4,1.3-0.8,1.7c-0.4,0.4-1,0.5-1.7,0.5c-0.5,0-0.9-0.1-1.2-0.3S88.3,39,88,38.7
			c-0.2-0.3-0.4-0.6-0.5-1c-0.1-0.4-0.2-0.8-0.2-1.2c0-0.4,0.1-0.8,0.2-1.2c0.1-0.4,0.3-0.7,0.5-1c0.2-0.3,0.5-0.5,0.9-0.7
			c0.3-0.2,0.8-0.3,1.2-0.3c0.3,0,0.6,0,0.9,0.1c0.3,0.1,0.5,0.2,0.8,0.4c0.2,0.2,0.4,0.4,0.5,0.7c0.1,0.3,0.2,0.6,0.2,0.9h-1
			c0-0.5-0.2-0.9-0.4-1.1C90.9,34.1,90.5,34,90,34c-0.3,0-0.5,0.1-0.7,0.2s-0.4,0.3-0.5,0.5c-0.1,0.2-0.3,0.5-0.3,0.8
			s-0.1,0.6-0.1,1c0,0.4,0,0.7,0.1,1c0.1,0.3,0.2,0.6,0.3,0.8c0.1,0.2,0.3,0.4,0.5,0.5s0.4,0.2,0.7,0.2c0.4,0,0.8-0.1,1.1-0.3
			c0.3-0.2,0.4-0.6,0.5-1.1H92.6z"/>
		<path d="M96.7,39.6c-0.1,0-0.3,0.1-0.4,0.1c-0.1,0-0.3,0-0.4,0c-0.2,0-0.4,0-0.6-0.1c-0.2,0-0.4-0.1-0.5-0.2s-0.2-0.3-0.3-0.5
			c-0.1-0.2-0.1-0.5-0.1-0.8v-4h-1.2v-0.8h1.2v-1.7h0.9v1.7h1.4v0.8h-1.4V38c0,0.4,0.1,0.6,0.2,0.8s0.3,0.2,0.5,0.2
			c0.1,0,0.3,0,0.4,0c0.1,0,0.2-0.1,0.3-0.1V39.6z"/>
		<path d="M103.1,37.5c-0.2,0.8-0.5,1.3-1,1.7c-0.5,0.4-1.1,0.5-1.8,0.5c-0.5,0-0.9-0.1-1.2-0.3s-0.6-0.4-0.8-0.7s-0.4-0.6-0.5-1
			c-0.1-0.4-0.2-0.8-0.2-1.2c0-0.4,0.1-0.8,0.2-1.2c0.1-0.4,0.3-0.7,0.5-1c0.2-0.3,0.5-0.5,0.9-0.7c0.3-0.2,0.7-0.3,1.2-0.3
			c0.5,0,0.9,0.1,1.3,0.2c0.4,0.2,0.6,0.4,0.9,0.7c0.2,0.3,0.4,0.6,0.5,1c0.1,0.4,0.2,0.8,0.2,1.3c0,0.2-0.1,0.2-0.2,0.2h-4.4
			c0,0.3,0,0.6,0.1,0.9c0.1,0.3,0.2,0.5,0.3,0.7c0.2,0.2,0.4,0.4,0.6,0.5c0.2,0.1,0.5,0.2,0.9,0.2c0.4,0,0.7-0.1,1-0.4
			c0.3-0.3,0.5-0.6,0.6-1.1H103.1z M102.2,35.9c0-0.6-0.2-1-0.5-1.4c-0.3-0.4-0.7-0.5-1.3-0.5c-0.3,0-0.5,0.1-0.7,0.2
			s-0.4,0.2-0.5,0.4c-0.1,0.2-0.3,0.4-0.3,0.6c-0.1,0.2-0.1,0.5-0.2,0.7H102.2z"/>
		<path d="M108.9,39.5l0-0.7c-0.1,0.1-0.2,0.3-0.4,0.4c-0.1,0.1-0.3,0.2-0.4,0.3s-0.3,0.1-0.5,0.2c-0.2,0-0.4,0.1-0.7,0.1
			c-0.5,0-0.8-0.1-1.2-0.3c-0.3-0.2-0.6-0.4-0.8-0.7c-0.2-0.3-0.4-0.6-0.5-1c-0.1-0.4-0.1-0.8-0.1-1.2c0-0.4,0-0.8,0.1-1.2
			c0.1-0.4,0.2-0.7,0.4-1c0.2-0.3,0.5-0.5,0.8-0.7c0.3-0.2,0.7-0.3,1.2-0.3c0.4,0,0.8,0.1,1.1,0.2c0.4,0.2,0.6,0.4,0.9,0.8v-3.7h0.9
			v7.9c0,0.2,0,0.3,0,0.6c0,0.2,0,0.4,0.1,0.5H108.9z M107.9,38.7c0.4-0.2,0.7-0.5,0.8-0.9c0.1-0.4,0.2-0.9,0.2-1.4
			c0-0.3,0-0.6-0.1-0.9c-0.1-0.3-0.2-0.5-0.3-0.8c-0.1-0.2-0.3-0.4-0.6-0.5c-0.2-0.1-0.5-0.2-0.8-0.2c-0.3,0-0.6,0.1-0.8,0.2
			c-0.2,0.1-0.4,0.3-0.5,0.5c-0.1,0.2-0.2,0.5-0.3,0.8c-0.1,0.3-0.1,0.6-0.1,0.9c0,0.3,0,0.6,0.1,0.9c0,0.3,0.1,0.6,0.3,0.8
			s0.3,0.4,0.5,0.6s0.5,0.2,0.8,0.2C107.3,38.9,107.6,38.8,107.9,38.7z"/>
		<path d="M113.5,37.3h-0.9c0-0.2,0-0.4,0-0.5c0-0.2,0-0.4,0-0.5c0-0.4,0.1-0.8,0.3-1.1s0.4-0.6,0.7-0.8c0.3-0.3,0.6-0.6,0.8-0.9
			c0.2-0.3,0.3-0.7,0.3-1c0-0.4-0.1-0.8-0.3-1c-0.2-0.3-0.6-0.4-1-0.4c-0.3,0-0.7,0.1-1,0.2c-0.3,0.1-0.6,0.3-0.8,0.5l-0.4-0.6
			c0.3-0.3,0.6-0.5,1-0.7c0.4-0.2,0.8-0.2,1.4-0.2c0.3,0,0.6,0.1,0.9,0.2c0.3,0.1,0.5,0.3,0.7,0.5c0.2,0.2,0.3,0.4,0.4,0.7
			c0.1,0.3,0.2,0.6,0.2,0.9c0,0.2,0,0.5-0.1,0.7c-0.1,0.2-0.2,0.4-0.3,0.6c-0.1,0.2-0.2,0.4-0.4,0.5c-0.2,0.2-0.3,0.3-0.5,0.4
			c-0.3,0.2-0.5,0.5-0.7,0.8c-0.2,0.3-0.3,0.7-0.3,1.1V37.3z M113.7,39.8h-1.2v-1.2h1.2V39.8z"/>
		<path d="M118.3,30.7c0,0.6-0.1,1-0.3,1.3c-0.2,0.3-0.5,0.5-0.9,0.5v-0.4c0.2-0.1,0.3-0.2,0.4-0.4s0.1-0.4,0.1-0.7h-0.6v-1.2h1.2
			c0.1,0,0.1,0,0.1,0.1V30.7z M120,30.7c0,0.6-0.1,1-0.3,1.3c-0.2,0.3-0.5,0.5-0.9,0.5v-0.4c0.2-0.1,0.3-0.2,0.4-0.4
			s0.1-0.4,0.1-0.7h-0.6v-1.2h1.2c0.1,0,0.1,0,0.1,0.1V30.7z"/>
	</g>
</g>
</svg>
