<svg xmlns="http://www.w3.org/2000/svg" width="150" height="36.483" viewBox="0 0 150 36.483"><path d="M108.094,371.241c0-10.527,7.97-18.241,18.752-18.241s18.752,7.714,18.752,18.241-7.969,18.241-18.752,18.241S108.094,381.769,108.094,371.241Zm29.748,0c0-6.564-4.688-11.252-11-11.252s-11,4.688-11,11.252c0,6.521,4.688,11.252,11,11.252S137.842,377.762,137.842,371.241Z" transform="translate(-108.094 -353)" fill="#fff"/><path d="M204.456,382.718H190.989l-2.429,6.733h-8.012l13.468-34.735h8.055l13.468,34.735h-8.652Zm-2.386-6.734-4.347-12.1-4.348,12.1Z" transform="translate(-142.786 -353.822)" fill="#fff"/><path d="M279.122,364.418h-8.013c-.469-3.026-2.728-4.859-6.436-4.859-3.622,0-5.625,1.449-5.625,3.538,0,2.6,2.685,3.494,9.462,4.9,8.013,1.662,10.74,5.626,10.74,10.825,0,6.648-6.265,10.7-14.022,10.7-8.567,0-14.832-4.646-15.173-12.061h7.97c.426,3.324,3.324,5.54,7.757,5.54,3.154,0,5.5-1.576,5.5-3.836,0-2.77-2.344-3.878-8.524-5.029-7.544-1.407-11.635-4.518-11.635-11.039,0-6.265,6.222-10.015,14.065-10.015C272.941,353.082,278.738,357.813,279.122,364.418Z" transform="translate(-176.069 -353.039)" fill="#fff"/><path d="M324.1,354.717v34.735h-7.757V354.717Z" transform="translate(-207.807 -353.822)" fill="#fff"/><path d="M368.956,364.418h-8.012c-.468-3.026-2.728-4.859-6.436-4.859-3.623,0-5.625,1.449-5.625,3.538,0,2.6,2.684,3.494,9.461,4.9,8.013,1.662,10.74,5.626,10.74,10.825,0,6.648-6.265,10.7-14.022,10.7-8.566,0-14.832-4.646-15.172-12.061h7.97c.426,3.324,3.324,5.54,7.756,5.54,3.154,0,5.5-1.576,5.5-3.836,0-2.77-2.344-3.878-8.524-5.029-7.544-1.407-11.635-4.518-11.635-11.039,0-6.265,6.222-10.015,14.064-10.015C362.776,353.082,368.573,357.813,368.956,364.418Z" transform="translate(-219.084 -353.039)" fill="#fff"/></svg>