<svg xmlns="http://www.w3.org/2000/svg" xmlns:xlink="http://www.w3.org/1999/xlink" width="160" height="93.5" viewBox="0 0 160 93.5"><defs><filter id="a" x="0" y="0" width="160" height="85" filterUnits="userSpaceOnUse"><feOffset dx="2" dy="4" input="SourceAlpha"/><feGaussianBlur stdDeviation="7" result="b"/><feFlood flood-color="#fedc3c" flood-opacity="0.6"/><feComposite operator="in" in2="b"/><feComposite in="SourceGraphic"/></filter><filter id="c" x="92.5" y="35.5" width="64" height="58" filterUnits="userSpaceOnUse"><feOffset dx="2" dy="4" input="SourceAlpha"/><feGaussianBlur stdDeviation="7" result="d"/><feFlood flood-color="#fedc3c" flood-opacity="0.6"/><feComposite operator="in" in2="d"/><feComposite in="SourceGraphic"/></filter></defs><g transform="translate(-2941 -216)"><g transform="matrix(1, 0, 0, 1, 2941, 216)" filter="url(#a)"><rect width="118" height="43" rx="8" transform="translate(19 17)" fill="#ffdc3c"/></g><g transform="matrix(1, 0, 0, 1, 2941, 216)" filter="url(#c)"><path d="M2631.379,320.526s-1.357,8.462,7.624,8.554-16.819,6.972-19.735-7.566S2631.379,320.526,2631.379,320.526Z" transform="translate(-2507.39 -262.29)" fill="#ffdc3c"/></g><path d="M2.212-9.325A2.658,2.658,0,0,0,.756-6.9c0,.783.318,1.224.857,1.224a.681.681,0,0,0,.722-.746.677.677,0,0,0-.722-.685A.377.377,0,0,0,1.49-7.1,1.937,1.937,0,0,1,2.53-8.8Zm2.4,0A2.669,2.669,0,0,0,3.166-6.9c0,.783.306,1.224.844,1.224a.691.691,0,0,0,.734-.746.688.688,0,0,0-.734-.685A.339.339,0,0,0,3.9-7.1,1.949,1.949,0,0,1,4.928-8.8Zm7.072,5.372A6.539,6.539,0,0,0,11.8-5.2,6.236,6.236,0,0,0,11.646-6.6h2.533v2.643ZM9.076-2.265C8.024-2.265,7.29-3.415,7.29-5.2s.734-2.924,1.786-2.924,1.786,1.15,1.786,2.924S10.116-2.265,9.076-2.265Zm5.1-7.611v2.459H11.364A2.474,2.474,0,0,0,9.076-9.032c-1.6,0-2.741,1.493-2.741,3.83s1.138,3.83,2.741,3.83a2.544,2.544,0,0,0,2.362-1.762h2.741V1.124h1v-11Zm3.561,1.187v.808h4.123c-.208,2.606-1.676,4.711-4.625,6.118l.538.82c3.646-1.786,5.1-4.576,5.1-7.745Zm7.354-1.187V1.1h1V-9.876ZM31.664-6.4a1.8,1.8,0,0,1,1.884-1.835A1.8,1.8,0,0,1,35.432-6.4a1.8,1.8,0,0,1-1.884,1.835A1.8,1.8,0,0,1,31.664-6.4Zm4.747,0a2.693,2.693,0,0,0-2.863-2.7,2.693,2.693,0,0,0-2.863,2.7,2.693,2.693,0,0,0,2.863,2.7A2.693,2.693,0,0,0,36.411-6.4ZM33.169-2.62h-1V.855h7.317V.035H33.169Zm5.824-3.915v-3.34h-1V-1.8h1V-5.7H40.62v-.832Zm8.259-.306v.82h2.2v4.2H50.47V-9.864H49.455v3.022ZM47.9-4.26a3.767,3.767,0,0,1-2.667-3.365v-.538h2.41v-.82H41.783v.82H44.23v.551a4,4,0,0,1-2.765,3.6l.526.783a4.684,4.684,0,0,0,2.765-2.729A4.528,4.528,0,0,0,47.4-3.477ZM44.462.035v-2.57H43.447V.855h7.329V.035ZM58.888-8.53H56.148V-9.864h-1V-8.53H52.416v.808h6.473ZM53.982-5.08c0-.759.661-1.248,1.664-1.248s1.676.489,1.676,1.248-.685,1.26-1.676,1.26S53.982-4.309,53.982-5.08Zm4.295,0c0-1.224-1.077-2.031-2.631-2.031S53.027-6.3,53.027-5.08s1.065,2.043,2.618,2.043S58.277-3.844,58.277-5.08ZM55.071-2.29h-1V.855h7.317V.035H55.071ZM60.9-6.254v-3.61h-1v8.222h1V-5.41h1.627v-.844Zm2.912-2.435v.808h4c-.184,2.57-1.542,4.662-4.491,6.106l.551.783a8.053,8.053,0,0,0,4.943-7.7Zm7.55-1.175v4.393h-2.57v.82h2.57V1.1h1V-9.864Zm5.849,7.6c-1.065,0-1.811-1.162-1.811-2.949,0-1.762.746-2.912,1.811-2.912S79-6.976,79-5.214C79-3.428,78.258-2.265,77.205-2.265Zm0-6.766c-1.615,0-2.765,1.493-2.765,3.818,0,2.349,1.15,3.842,2.765,3.842s2.753-1.493,2.753-3.842C79.958-7.539,78.821-9.032,77.205-9.032Zm7.268,2.753v-.832h-1.75V-9.864h-1V1.1h1V-3.012h1.75v-.832h-1.75V-6.279ZM86.762-2.51h.991c-.22-1.921,1.982-2.643,1.982-4.442A2.093,2.093,0,0,0,87.447-9.13,3.055,3.055,0,0,0,85.11-8l.636.587A2.087,2.087,0,0,1,87.324-8.2a1.239,1.239,0,0,1,1.321,1.321C88.646-5.422,86.48-4.639,86.762-2.51ZM87.288.353a.811.811,0,0,0,.82-.844.832.832,0,0,0-.82-.869.83.83,0,0,0-.808.869A.808.808,0,0,0,87.288.353ZM90.971-5.7a2.658,2.658,0,0,0,1.456-2.423c0-.783-.33-1.236-.869-1.236a.685.685,0,0,0-.71.746.677.677,0,0,0,.71.7.377.377,0,0,0,.122-.012,1.939,1.939,0,0,1-1.028,1.7Zm2.4,0a2.658,2.658,0,0,0,1.456-2.423c0-.783-.318-1.236-.857-1.236a.688.688,0,0,0-.722.746.68.68,0,0,0,.722.7.416.416,0,0,0,.122-.012,1.927,1.927,0,0,1-1.04,1.7Z" transform="translate(2971.244 258.876)" opacity="0.6"/></g></svg>