<?xml version="1.0" encoding="utf-8"?>
<!-- Generator: Adobe Illustrator 25.4.1, SVG Export Plug-In . SVG Version: 6.00 Build 0)  -->
<svg version="1.1" id="레이어_1" xmlns="http://www.w3.org/2000/svg" xmlns:xlink="http://www.w3.org/1999/xlink" width="220" height="128.56" x="0px"
	 y="0px" viewBox="0 0 160 93.5" style="enable-background:new 0 0 160 93.5;" xml:space="preserve">
<style type="text/css">
	.st0{fill:#FFDC3C;}
</style>
<g transform="matrix(1, 0, 0, 1, 2941, 216)">
	<path class="st0" d="M-2914.2-199.5h102c4.4,0,8,3.6,8,8v27c0,4.4-3.6,8-8,8h-102c-4.4,0-8-3.6-8-8v-27
		C-2922.2-195.9-2918.6-199.5-2914.2-199.5z"/>
</g>
<g transform="matrix(1, 0, 0, 1, 2941, 216)">
	<path class="st0" d="M-2817-157.8c0,0-1.4,8.5,7.6,8.6s-16.8,7-19.7-7.6S-2817-157.8-2817-157.8z"/>
</g>
<g>
	<path d="M25.9,33.7c0-0.6,0.1-1,0.3-1.3s0.5-0.5,0.9-0.5v0.4c-0.2,0.1-0.3,0.2-0.4,0.4s-0.1,0.4-0.1,0.7h0.6v1.2H26
		c-0.1,0-0.1,0-0.1-0.1V33.7z M27.6,33.7c0-0.6,0.1-1,0.3-1.3s0.5-0.5,0.9-0.5v0.4c-0.2,0.1-0.3,0.2-0.4,0.4s-0.1,0.4-0.1,0.7H29
		v1.2h-1.2c-0.1,0-0.1,0-0.1-0.1V33.7z"/>
	<path d="M31.8,41.8h-0.9v-9h0.9V41.8z"/>
	<path d="M37.3,37.3c0-0.2-0.1-0.4-0.1-0.5c-0.1-0.1-0.2-0.2-0.3-0.3c-0.1-0.1-0.3-0.1-0.4-0.2c-0.2,0-0.3,0-0.5,0
		c-0.2,0-0.3,0-0.5,0c-0.1,0-0.3,0.1-0.4,0.2c-0.1,0.1-0.2,0.2-0.3,0.3c-0.1,0.1-0.1,0.3-0.1,0.4c0,0.2,0.1,0.4,0.2,0.5
		c0.1,0.1,0.3,0.2,0.5,0.3c0.2,0.1,0.5,0.1,0.8,0.2c0.3,0.1,0.7,0.2,1.1,0.3c0.4,0.1,0.7,0.3,0.9,0.6c0.2,0.2,0.3,0.5,0.3,0.9
		c0,0.4-0.1,0.7-0.2,0.9c-0.1,0.3-0.3,0.5-0.6,0.6c-0.2,0.2-0.5,0.3-0.8,0.4c-0.3,0.1-0.6,0.1-1,0.1c-0.3,0-0.5,0-0.8-0.1
		s-0.5-0.2-0.7-0.3s-0.4-0.4-0.6-0.6s-0.2-0.6-0.2-0.9h1c0,0.2,0.1,0.4,0.2,0.6s0.2,0.3,0.3,0.3c0.1,0.1,0.3,0.1,0.5,0.2
		c0.2,0,0.4,0,0.6,0c0.2,0,0.4,0,0.5-0.1c0.2,0,0.3-0.1,0.5-0.2c0.1-0.1,0.2-0.2,0.3-0.3s0.1-0.3,0.1-0.5c0-0.2-0.1-0.4-0.1-0.5
		c-0.1-0.1-0.2-0.2-0.4-0.3c-0.2-0.1-0.4-0.1-0.6-0.2c-0.2,0-0.4-0.1-0.7-0.2c-0.2-0.1-0.5-0.1-0.7-0.2c-0.2-0.1-0.4-0.2-0.6-0.3
		c-0.2-0.1-0.3-0.3-0.4-0.5c-0.1-0.2-0.2-0.4-0.2-0.7c0-0.3,0.1-0.6,0.2-0.8c0.1-0.2,0.3-0.4,0.5-0.5c0.2-0.1,0.5-0.2,0.7-0.3
		c0.3-0.1,0.5-0.1,0.8-0.1c0.3,0,0.6,0,0.8,0.1c0.3,0.1,0.5,0.2,0.7,0.3c0.2,0.1,0.4,0.3,0.5,0.5c0.1,0.2,0.2,0.5,0.3,0.9H37.3z"/>
	<path d="M46.3,41.9c-0.1,0-0.3,0.1-0.4,0.1c-0.1,0-0.3,0-0.4,0c-0.2,0-0.4,0-0.6-0.1s-0.4-0.1-0.5-0.2c-0.1-0.1-0.2-0.3-0.3-0.5
		S44,40.7,44,40.4v-4h-1.2v-0.8H44v-1.7h0.9v1.7h1.4v0.8h-1.4v3.8c0,0.4,0.1,0.6,0.2,0.8c0.1,0.1,0.3,0.2,0.5,0.2c0.1,0,0.3,0,0.4,0
		s0.2-0.1,0.3-0.1V41.9z"/>
	<path d="M52.6,41.8h-0.9V38c0-0.6-0.1-1-0.4-1.3s-0.6-0.4-1.1-0.4c-0.2,0-0.4,0-0.6,0.1c-0.2,0.1-0.4,0.2-0.5,0.4
		c-0.2,0.2-0.3,0.4-0.4,0.6c-0.1,0.2-0.1,0.5-0.1,0.9v3.5h-0.9v-9h0.9v3.7c0.3-0.4,0.6-0.6,0.9-0.8c0.3-0.1,0.7-0.2,1.1-0.2
		c0.7,0,1.2,0.2,1.6,0.6c0.4,0.4,0.6,0.9,0.6,1.7V41.8z"/>
	<path d="M55.3,33.9h-1v-1h1V33.9z M55.3,41.8h-0.9v-6.2h0.9V41.8z"/>
	<path d="M60.4,37.3c0-0.2-0.1-0.4-0.1-0.5c-0.1-0.1-0.2-0.2-0.3-0.3c-0.1-0.1-0.3-0.1-0.4-0.2c-0.2,0-0.3,0-0.5,0
		c-0.2,0-0.3,0-0.5,0c-0.1,0-0.3,0.1-0.4,0.2c-0.1,0.1-0.2,0.2-0.3,0.3c-0.1,0.1-0.1,0.3-0.1,0.4c0,0.2,0.1,0.4,0.2,0.5
		c0.1,0.1,0.3,0.2,0.5,0.3c0.2,0.1,0.5,0.1,0.8,0.2c0.3,0.1,0.7,0.2,1.1,0.3c0.4,0.1,0.7,0.3,0.9,0.6c0.2,0.2,0.3,0.5,0.3,0.9
		c0,0.4-0.1,0.7-0.2,0.9c-0.1,0.3-0.3,0.5-0.6,0.6c-0.2,0.2-0.5,0.3-0.8,0.4c-0.3,0.1-0.6,0.1-1,0.1c-0.3,0-0.5,0-0.8-0.1
		s-0.5-0.2-0.7-0.3S57,41.2,56.9,41s-0.2-0.6-0.2-0.9h1c0,0.2,0.1,0.4,0.2,0.6s0.2,0.3,0.3,0.3c0.1,0.1,0.3,0.1,0.5,0.2
		c0.2,0,0.4,0,0.6,0c0.2,0,0.4,0,0.5-0.1c0.2,0,0.3-0.1,0.5-0.2c0.1-0.1,0.2-0.2,0.3-0.3s0.1-0.3,0.1-0.5c0-0.2-0.1-0.4-0.1-0.5
		c-0.1-0.1-0.2-0.2-0.4-0.3c-0.2-0.1-0.4-0.1-0.6-0.2c-0.2,0-0.4-0.1-0.7-0.2c-0.2-0.1-0.5-0.1-0.7-0.2c-0.2-0.1-0.4-0.2-0.6-0.3
		c-0.2-0.1-0.3-0.3-0.4-0.5c-0.1-0.2-0.2-0.4-0.2-0.7c0-0.3,0.1-0.6,0.2-0.8c0.1-0.2,0.3-0.4,0.5-0.5c0.2-0.1,0.5-0.2,0.7-0.3
		c0.3-0.1,0.5-0.1,0.8-0.1c0.3,0,0.6,0,0.8,0.1c0.3,0.1,0.5,0.2,0.7,0.3c0.2,0.1,0.4,0.3,0.5,0.5c0.1,0.2,0.2,0.5,0.3,0.9H60.4z"/>
	<path d="M67.4,44.1h-0.9v-8.5h0.9l0,0.8c0.2-0.3,0.5-0.6,0.9-0.8c0.4-0.2,0.7-0.3,1.1-0.3c0.5,0,0.9,0.1,1.2,0.3
		c0.3,0.2,0.6,0.4,0.8,0.7c0.2,0.3,0.4,0.6,0.5,1c0.1,0.4,0.1,0.8,0.1,1.2c0,0.4,0,0.8-0.1,1.2c-0.1,0.4-0.2,0.7-0.5,1
		s-0.5,0.5-0.8,0.7c-0.3,0.2-0.7,0.3-1.2,0.3c-0.5,0-0.9-0.1-1.2-0.3s-0.6-0.4-0.8-0.7l0,0.9V44.1z M70.1,41
		c0.2-0.1,0.3-0.3,0.4-0.4c0.1-0.2,0.2-0.4,0.3-0.6c0.1-0.2,0.1-0.4,0.1-0.6c0-0.2,0-0.4,0-0.7c0-0.3,0-0.6-0.1-0.9
		c-0.1-0.3-0.2-0.5-0.3-0.8c-0.1-0.2-0.3-0.4-0.5-0.5c-0.2-0.1-0.5-0.2-0.8-0.2c-0.3,0-0.6,0.1-0.8,0.2c-0.2,0.1-0.4,0.3-0.6,0.5
		c-0.1,0.2-0.2,0.5-0.3,0.8c-0.1,0.3-0.1,0.6-0.1,0.9c0,0.4,0,0.7,0.1,1s0.2,0.6,0.3,0.8c0.1,0.2,0.3,0.4,0.6,0.6
		c0.2,0.1,0.5,0.2,0.9,0.2C69.6,41.2,69.9,41.1,70.1,41z"/>
	<path d="M74.3,41.8h-0.9v-9h0.9V41.8z"/>
	<path d="M79.6,41.8l0-0.7c-0.2,0.2-0.4,0.4-0.8,0.6c-0.3,0.2-0.7,0.3-1.1,0.3c-0.3,0-0.6,0-0.8-0.1c-0.3-0.1-0.5-0.2-0.7-0.4
		c-0.2-0.2-0.3-0.4-0.4-0.6c-0.1-0.2-0.2-0.5-0.2-0.8c0-0.4,0.1-0.8,0.3-1.1c0.2-0.3,0.5-0.5,0.9-0.7c0.2-0.1,0.4-0.2,0.7-0.2
		S78,38,78.2,38c0.2,0,0.5,0,0.7,0c0.2,0,0.4,0,0.6,0v-0.4c0-0.5-0.2-0.8-0.4-1s-0.6-0.3-1-0.3c-0.4,0-0.7,0.1-0.9,0.2
		s-0.4,0.4-0.4,0.9h-1c0-0.3,0.1-0.6,0.2-0.8c0.1-0.2,0.3-0.4,0.5-0.6c0.2-0.2,0.5-0.3,0.7-0.3c0.3-0.1,0.6-0.1,0.9-0.1
		c0.7,0,1.2,0.2,1.6,0.5c0.4,0.3,0.6,0.9,0.6,1.6v3.3c0,0.1,0,0.3,0,0.5c0,0.2,0,0.3,0,0.4H79.6z M79.5,39.7c0-0.3,0.1-0.6,0.1-0.9
		c-0.2,0-0.3,0-0.5,0s-0.4,0-0.6,0c-0.2,0-0.4,0-0.7,0.1c-0.2,0-0.4,0.1-0.6,0.2c-0.2,0.1-0.3,0.2-0.4,0.4s-0.2,0.4-0.2,0.6
		c0,0.4,0.1,0.7,0.4,0.9s0.5,0.3,0.9,0.3c0.3,0,0.5,0,0.7-0.1c0.3-0.1,0.5-0.3,0.7-0.5C79.4,40.3,79.5,40,79.5,39.7z"/>
	<path d="M87,39.8c-0.1,0.8-0.4,1.3-0.8,1.7c-0.4,0.4-1,0.5-1.7,0.5c-0.5,0-0.9-0.1-1.2-0.3c-0.3-0.2-0.6-0.4-0.8-0.7
		c-0.2-0.3-0.4-0.6-0.5-1c-0.1-0.4-0.2-0.8-0.2-1.2c0-0.4,0.1-0.8,0.2-1.2c0.1-0.4,0.3-0.7,0.5-1c0.2-0.3,0.5-0.5,0.9-0.7
		c0.3-0.2,0.8-0.3,1.2-0.3c0.3,0,0.6,0.1,0.9,0.2s0.5,0.2,0.8,0.4s0.4,0.4,0.5,0.7c0.1,0.3,0.2,0.6,0.2,0.9h-1
		c0-0.5-0.2-0.9-0.4-1.1c-0.3-0.2-0.6-0.3-1.1-0.3c-0.3,0-0.5,0.1-0.7,0.2s-0.4,0.3-0.5,0.5c-0.1,0.2-0.3,0.5-0.3,0.8
		c-0.1,0.3-0.1,0.6-0.1,1c0,0.4,0,0.7,0.1,1c0.1,0.3,0.2,0.6,0.3,0.8c0.1,0.2,0.3,0.4,0.5,0.5s0.4,0.2,0.7,0.2
		c0.4,0,0.8-0.1,1.1-0.3c0.3-0.2,0.4-0.6,0.5-1.1H87z"/>
	<path d="M93.2,39.8c-0.2,0.8-0.5,1.3-1,1.7c-0.5,0.4-1.1,0.5-1.8,0.5c-0.5,0-0.9-0.1-1.2-0.3c-0.3-0.2-0.6-0.4-0.8-0.7
		c-0.2-0.3-0.4-0.6-0.5-1c-0.1-0.4-0.2-0.8-0.2-1.2c0-0.4,0.1-0.8,0.2-1.2c0.1-0.4,0.3-0.7,0.5-1c0.2-0.3,0.5-0.5,0.9-0.7
		c0.3-0.2,0.7-0.3,1.2-0.3c0.5,0,0.9,0.1,1.3,0.2c0.4,0.2,0.6,0.4,0.9,0.7c0.2,0.3,0.4,0.6,0.5,1c0.1,0.4,0.2,0.8,0.2,1.3
		c0,0.2-0.1,0.2-0.2,0.2h-4.4c0,0.3,0,0.6,0.1,0.9c0.1,0.3,0.2,0.5,0.3,0.7c0.2,0.2,0.4,0.4,0.6,0.5c0.2,0.1,0.5,0.2,0.9,0.2
		c0.4,0,0.7-0.1,1-0.4c0.3-0.3,0.5-0.6,0.6-1.1H93.2z M92.3,38.2c0-0.6-0.2-1-0.5-1.4c-0.3-0.4-0.7-0.5-1.3-0.5
		c-0.3,0-0.5,0.1-0.7,0.2s-0.4,0.2-0.5,0.4c-0.1,0.2-0.3,0.4-0.3,0.6c-0.1,0.2-0.1,0.5-0.2,0.7H92.3z"/>
	<path d="M101.7,37.3c0-0.2-0.1-0.4-0.1-0.5c-0.1-0.1-0.2-0.2-0.3-0.3c-0.1-0.1-0.3-0.1-0.4-0.2c-0.2,0-0.3,0-0.5,0
		c-0.2,0-0.3,0-0.5,0c-0.1,0-0.3,0.1-0.4,0.2c-0.1,0.1-0.2,0.2-0.3,0.3c-0.1,0.1-0.1,0.3-0.1,0.4c0,0.2,0.1,0.4,0.2,0.5
		s0.3,0.2,0.5,0.3c0.2,0.1,0.5,0.1,0.8,0.2c0.3,0.1,0.7,0.2,1.1,0.3c0.4,0.1,0.7,0.3,0.9,0.6c0.2,0.2,0.3,0.5,0.3,0.9
		c0,0.4-0.1,0.7-0.2,0.9c-0.1,0.3-0.3,0.5-0.6,0.6c-0.2,0.2-0.5,0.3-0.8,0.4c-0.3,0.1-0.6,0.1-1,0.1c-0.3,0-0.5,0-0.8-0.1
		c-0.3-0.1-0.5-0.2-0.7-0.3s-0.4-0.4-0.6-0.6c-0.1-0.2-0.2-0.6-0.2-0.9h1c0,0.2,0.1,0.4,0.2,0.6s0.2,0.3,0.3,0.3
		c0.1,0.1,0.3,0.1,0.5,0.2s0.4,0,0.6,0c0.2,0,0.4,0,0.5-0.1s0.3-0.1,0.5-0.2c0.1-0.1,0.2-0.2,0.3-0.3s0.1-0.3,0.1-0.5
		c0-0.2,0-0.4-0.1-0.5c-0.1-0.1-0.2-0.2-0.4-0.3c-0.2-0.1-0.4-0.1-0.6-0.2c-0.2,0-0.5-0.1-0.7-0.2c-0.2-0.1-0.5-0.1-0.7-0.2
		c-0.2-0.1-0.4-0.2-0.6-0.3c-0.2-0.1-0.3-0.3-0.4-0.5c-0.1-0.2-0.2-0.4-0.2-0.7c0-0.3,0.1-0.6,0.2-0.8s0.3-0.4,0.5-0.5
		c0.2-0.1,0.5-0.2,0.7-0.3c0.3-0.1,0.5-0.1,0.8-0.1c0.3,0,0.6,0,0.8,0.1c0.3,0.1,0.5,0.2,0.7,0.3c0.2,0.1,0.4,0.3,0.5,0.5
		s0.2,0.5,0.3,0.9H101.7z"/>
	<path d="M107.8,41.8l0-0.7c-0.2,0.2-0.4,0.4-0.8,0.6c-0.3,0.2-0.7,0.3-1.1,0.3c-0.3,0-0.6,0-0.8-0.1c-0.3-0.1-0.5-0.2-0.7-0.4
		c-0.2-0.2-0.3-0.4-0.4-0.6c-0.1-0.2-0.2-0.5-0.2-0.8c0-0.4,0.1-0.8,0.3-1.1s0.5-0.5,0.9-0.7c0.2-0.1,0.4-0.2,0.7-0.2
		c0.2,0,0.5-0.1,0.7-0.1c0.2,0,0.5,0,0.7,0c0.2,0,0.4,0,0.6,0v-0.4c0-0.5-0.2-0.8-0.4-1s-0.6-0.3-1-0.3c-0.4,0-0.7,0.1-0.9,0.2
		s-0.4,0.4-0.4,0.9h-1c0-0.3,0.1-0.6,0.2-0.8c0.1-0.2,0.3-0.4,0.5-0.6s0.5-0.3,0.7-0.3c0.3-0.1,0.6-0.1,0.9-0.1
		c0.7,0,1.2,0.2,1.6,0.5c0.4,0.3,0.6,0.9,0.6,1.6v3.3c0,0.1,0,0.3,0,0.5c0,0.2,0,0.3,0,0.4H107.8z M107.8,39.7
		c0-0.3,0.1-0.6,0.1-0.9c-0.2,0-0.3,0-0.5,0s-0.4,0-0.6,0c-0.2,0-0.4,0-0.7,0.1c-0.2,0-0.4,0.1-0.6,0.2c-0.2,0.1-0.3,0.2-0.4,0.4
		c-0.1,0.2-0.2,0.4-0.2,0.6c0,0.4,0.1,0.7,0.4,0.9c0.2,0.2,0.5,0.3,0.9,0.3c0.3,0,0.5,0,0.7-0.1c0.3-0.1,0.5-0.3,0.7-0.5
		C107.6,40.3,107.7,40,107.8,39.7z"/>
	<path d="M111.8,41.8H111v-5.3h-1.2v-0.8h1.2v-1.5c0-0.3,0-0.6,0.1-0.8s0.2-0.4,0.3-0.5c0.1-0.1,0.3-0.2,0.5-0.2
		c0.2,0,0.4-0.1,0.6-0.1c0.1,0,0.3,0,0.4,0c0.1,0,0.3,0,0.4,0.1v0.8c-0.1,0-0.2-0.1-0.3-0.1c-0.1,0-0.2,0-0.4,0
		c-0.2,0-0.4,0.1-0.5,0.2c-0.1,0.1-0.2,0.4-0.2,0.8v1.4h1.4v0.8h-1.4V41.8z"/>
	<path d="M119.5,39.8c-0.2,0.8-0.5,1.3-1,1.7c-0.5,0.4-1.1,0.5-1.8,0.5c-0.5,0-0.9-0.1-1.2-0.3c-0.3-0.2-0.6-0.4-0.8-0.7
		c-0.2-0.3-0.4-0.6-0.5-1c-0.1-0.4-0.2-0.8-0.2-1.2c0-0.4,0.1-0.8,0.2-1.2c0.1-0.4,0.3-0.7,0.5-1c0.2-0.3,0.5-0.5,0.9-0.7
		c0.3-0.2,0.7-0.3,1.2-0.3c0.5,0,0.9,0.1,1.3,0.2c0.4,0.2,0.6,0.4,0.9,0.7c0.2,0.3,0.4,0.6,0.5,1c0.1,0.4,0.2,0.8,0.2,1.3
		c0,0.2-0.1,0.2-0.2,0.2H115c0,0.3,0,0.6,0.1,0.9c0.1,0.3,0.2,0.5,0.3,0.7c0.2,0.2,0.4,0.4,0.6,0.5c0.2,0.1,0.5,0.2,0.9,0.2
		c0.4,0,0.7-0.1,1-0.4c0.3-0.3,0.5-0.6,0.6-1.1H119.5z M118.6,38.2c0-0.6-0.2-1-0.5-1.4c-0.3-0.4-0.7-0.5-1.3-0.5
		c-0.3,0-0.5,0.1-0.7,0.2s-0.4,0.2-0.5,0.4c-0.1,0.2-0.3,0.4-0.3,0.6c-0.1,0.2-0.1,0.5-0.2,0.7H118.6z"/>
	<path d="M123.2,39.6h-0.9c0-0.2,0-0.4,0-0.5c0-0.2,0-0.4,0-0.5c0-0.4,0.1-0.8,0.3-1.1s0.4-0.6,0.7-0.8c0.3-0.3,0.6-0.6,0.8-0.9
		s0.3-0.7,0.3-1c0-0.4-0.1-0.8-0.3-1c-0.2-0.3-0.6-0.4-1-0.4c-0.3,0-0.7,0.1-1,0.2c-0.3,0.1-0.6,0.3-0.8,0.5l-0.4-0.6
		c0.3-0.3,0.6-0.5,1-0.7c0.4-0.2,0.8-0.2,1.4-0.2c0.3,0,0.6,0.1,0.9,0.2c0.3,0.1,0.5,0.3,0.7,0.5c0.2,0.2,0.3,0.4,0.4,0.7
		c0.1,0.3,0.2,0.6,0.2,0.9c0,0.2,0,0.5-0.1,0.7c-0.1,0.2-0.2,0.4-0.3,0.6s-0.2,0.4-0.4,0.5c-0.2,0.2-0.3,0.3-0.5,0.4
		c-0.3,0.2-0.5,0.5-0.7,0.8c-0.2,0.3-0.3,0.7-0.3,1.1V39.6z M123.3,42.1h-1.2v-1.2h1.2V42.1z"/>
	<path d="M127.9,33c0,0.6-0.1,1-0.3,1.3c-0.2,0.3-0.5,0.5-0.9,0.5v-0.4c0.2-0.1,0.3-0.2,0.4-0.4s0.1-0.4,0.1-0.7h-0.6v-1.2h1.2
		c0.1,0,0.1,0,0.1,0.1V33z M129.7,33c0,0.6-0.1,1-0.3,1.3c-0.2,0.3-0.5,0.5-0.9,0.5v-0.4c0.2-0.1,0.3-0.2,0.4-0.4s0.1-0.4,0.1-0.7
		h-0.6v-1.2h1.2c0.1,0,0.1,0,0.1,0.1V33z"/>
</g>
</svg>
