<svg xmlns="http://www.w3.org/2000/svg" xmlns:xlink="http://www.w3.org/1999/xlink" width="162" height="93.5" viewBox="0 0 162 93.5"><defs><filter id="a" x="0" y="0" width="162" height="85" filterUnits="userSpaceOnUse"><feOffset dx="2" dy="4" input="SourceAlpha"/><feGaussianBlur stdDeviation="7" result="b"/><feFlood flood-color="#dfc135" flood-opacity="0.4"/><feComposite operator="in" in2="b"/><feComposite in="SourceGraphic"/></filter><filter id="c" x="3.5" y="35.5" width="64" height="58" filterUnits="userSpaceOnUse"><feOffset dx="2" dy="4" input="SourceAlpha"/><feGaussianBlur stdDeviation="7" result="d"/><feFlood flood-color="#dfc135" flood-opacity="0.4"/><feComposite operator="in" in2="d"/><feComposite in="SourceGraphic"/></filter></defs><g transform="translate(-2895 -179)"><g transform="matrix(1, 0, 0, 1, 2895, 179)" filter="url(#a)"><rect width="120" height="43" rx="8" transform="translate(19 17)" fill="#fee46c"/></g><g transform="matrix(1, 0, 0, 1, 2895, 179)" filter="url(#c)"><path d="M2628.406,320.526s1.357,8.462-7.624,8.554,16.819,6.972,19.735-7.566S2628.406,320.526,2628.406,320.526Z" transform="translate(-2596.39 -262.29)" fill="#fee46c"/></g><path d="M2.2-9.328A2.643,2.643,0,0,0,.756-6.919c0,.779.316,1.217.852,1.217a.678.678,0,0,0,.718-.742.674.674,0,0,0-.718-.681.375.375,0,0,0-.122.012A1.926,1.926,0,0,1,2.52-8.805Zm2.385,0A2.654,2.654,0,0,0,3.153-6.919c0,.779.3,1.217.84,1.217a.687.687,0,0,0,.73-.742.684.684,0,0,0-.73-.681.337.337,0,0,0-.11.012A1.938,1.938,0,0,1,4.905-8.805ZM15.528-4.546c-1.91-.341-3.991-1.947-3.991-3.76v-.84H10.491v.84c0,1.813-2.069,3.419-3.979,3.76l.414.827a5.883,5.883,0,0,0,4.088-3.042A5.909,5.909,0,0,0,15.1-3.719ZM11.513-1.2V-3.853h-1V-1.2H6.11v.815h9.9V-1.2ZM18.1-1.76h6.571V1.124h1.01v-3.7H18.1ZM22.44-4.437v-1.3h3.31v-.8h-6.51V-8.635h6.413v-.8h-7.41v3.7h3.2v1.3H17v.8h9.881v-.8ZM32.819-8.7c1.716,0,2.811.511,2.811,1.375s-1.1,1.363-2.811,1.363-2.811-.5-2.811-1.363S31.1-8.7,32.819-8.7Zm0,3.541c2.336,0,3.833-.8,3.833-2.166S35.155-9.5,32.819-9.5s-3.833.815-3.833,2.178S30.483-5.155,32.819-5.155ZM30.154-2.368h-1V.8h7.508V-.02h-6.51ZM27.879-4.133v.8h9.868v-.8Zm19.688-1.1A3.312,3.312,0,0,1,44.89-8.16v-.292h2.4v-.815H41.446v.815H43.88v.3a3.573,3.573,0,0,1-2.774,3.212l.487.779A4.331,4.331,0,0,0,44.4-6.639a4.249,4.249,0,0,0,2.713,2.2ZM43.746-1.1h5.926V-3.731H42.736v.767h5.95v1.119H42.773V.929h7.3V.163H43.746Zm5.926-6.4V-9.864h-1v5.61h1V-6.676H51.29V-7.5ZM63.446-9.876h-1v8.165h1Zm-1.874,5.67c-.937.11-1.923.17-2.933.219V-5.5h2.166v-.8H56.535V-8.355h4.2V-9.17h-5.2V-5.5h2.105V-3.95c-1.071.037-2.129.049-3.079.049l.146.815a51.6,51.6,0,0,0,6.936-.4ZM57.387-.02V-2.247h-1V.8h7.423V-.02Zm13.64-6.486v.815h2.361v3.882H74.4V-9.864h-1.01v3.358Zm-4.9-2.519v.815H70c-.219,1.959-1.935,3.517-4.429,4.344l.426.8c3.091-1.022,5.074-3.152,5.074-5.962Zm2.373,9v-2.6h-1V.8h7.179V-.02ZM76.88-8.708v.827h4c-.231,2.58-1.728,4.673-4.514,6.072l.548.779a8.205,8.205,0,0,0,4.952-7.678Zm9.564,3.261H84.692V-9.876h-1V1.039h1V-4.619h1.752Zm2.263,2.9h.986c-.219-1.91,1.971-2.628,1.971-4.417a2.081,2.081,0,0,0-2.275-2.166,3.038,3.038,0,0,0-2.324,1.119l.633.584a2.075,2.075,0,0,1,1.57-.779,1.232,1.232,0,0,1,1.314,1.314C90.581-5.447,88.427-4.668,88.707-2.551ZM89.231.3a.806.806,0,0,0,.815-.84.827.827,0,0,0-.815-.864.825.825,0,0,0-.8.864A.8.8,0,0,0,89.231.3Zm3.663-6.023a2.643,2.643,0,0,0,1.448-2.409c0-.779-.329-1.229-.864-1.229a.681.681,0,0,0-.706.742.673.673,0,0,0,.706.694.375.375,0,0,0,.122-.012A1.928,1.928,0,0,1,92.577-6.25Zm2.385,0a2.643,2.643,0,0,0,1.448-2.409c0-.779-.316-1.229-.852-1.229a.684.684,0,0,0-.718.742.676.676,0,0,0,.718.694A.414.414,0,0,0,96-7.941,1.917,1.917,0,0,1,94.962-6.25Z" transform="translate(2925.244 221.876)" opacity="0.6"/></g></svg>