<svg xmlns="http://www.w3.org/2000/svg" width="90" height="106.875" viewBox="0 0 90 106.875"><g transform="translate(-50 -50)"><path d="M0,0H7.031V7.031H0Z" transform="translate(106.25 110.469)" fill="#37bef0"/><rect width="7.031" height="7.031" transform="translate(113.281 123.125)" fill="#3f6cb4"/><g transform="translate(106.25 123.125)"><rect width="11.25" height="11.25" transform="translate(11.249 11.25)" fill="#37bef0"/><path d="M295.641,228.263v7.031H308.3V254.98H288.61V235.294h-7.031v26.719h33.748V254.98h0V228.263Z" transform="translate(-281.579 -228.263)" fill="#37bef0"/></g><path d="M328.083,173v7.031h-7.031v7.031h12.656v-7.031h7.031V173Z" transform="translate(-200.74 -69.563)" fill="#54b987"/><path d="M168.684,23l-45,26.719v53.437l45,26.719V97.546L150.4,86.992V65.883l18.281-10.555,18.281,10.555V76.437h14.062V69.406h12.656V49.719Z" transform="translate(-73.684 27)" fill="#fff"/></g></svg>