<svg xmlns="http://www.w3.org/2000/svg" xmlns:xlink="http://www.w3.org/1999/xlink" width="221" height="179.5" viewBox="0 0 221 179.5"><defs><filter id="a" x="32" y="86" width="174" height="93.5" filterUnits="userSpaceOnUse"><feOffset dx="2" dy="4" input="SourceAlpha"/><feGaussianBlur stdDeviation="7" result="b"/><feFlood flood-color="#fedc3c" flood-opacity="0.6"/><feComposite operator="in" in2="b"/><feComposite in="SourceGraphic"/></filter><filter id="c" x="0" y="49" width="162" height="93.5" filterUnits="userSpaceOnUse"><feOffset dx="2" dy="4" input="SourceAlpha"/><feGaussianBlur stdDeviation="7" result="d"/><feFlood flood-color="#dfc135" flood-opacity="0.4"/><feComposite operator="in" in2="d"/><feComposite in="SourceGraphic"/></filter><filter id="e" x="86" y="0" width="135.001" height="75.5" filterUnits="userSpaceOnUse"><feOffset dx="2" dy="4" input="SourceAlpha"/><feGaussianBlur stdDeviation="4" result="f"/><feFlood flood-color="#fedc3c" flood-opacity="0.2"/><feComposite operator="in" in2="f"/><feComposite in="SourceGraphic"/></filter><filter id="g" x="98.5" y="44.5" width="56" height="56" filterUnits="userSpaceOnUse"><feOffset dy="4" input="SourceAlpha"/><feGaussianBlur stdDeviation="7" result="h"/><feFlood flood-color="#e1c335" flood-opacity="0.4"/><feComposite operator="in" in2="h"/><feComposite in="SourceGraphic"/></filter><filter id="i" x="120.5" y="44.5" width="56" height="56" filterUnits="userSpaceOnUse"><feOffset dy="4" input="SourceAlpha"/><feGaussianBlur stdDeviation="7" result="j"/><feFlood flood-color="#e1c335" flood-opacity="0.4"/><feComposite operator="in" in2="j"/><feComposite in="SourceGraphic"/></filter><filter id="k" x="142.5" y="44.5" width="56" height="56" filterUnits="userSpaceOnUse"><feOffset dy="4" input="SourceAlpha"/><feGaussianBlur stdDeviation="7" result="l"/><feFlood flood-color="#e1c335" flood-opacity="0.4"/><feComposite operator="in" in2="l"/><feComposite in="SourceGraphic"/></filter></defs><g transform="translate(-124.5 -197.5)"><g transform="matrix(1, 0, 0, 1, 124.5, 197.5)" filter="url(#a)"><path d="M-2349.443,2.5H-2448.5a8,8,0,0,1-8-8v-27a8,8,0,0,1,8-8h116a8,8,0,0,1,8,8v27a8,8,0,0,1-8,8h-5.068c.149,2.485,1.334,6.728,7.679,6.793,4.383.045.482,1.707-5,1.707C-2340.436,11-2347.6,9.3-2349.443,2.5Z" transform="translate(2507.5 143.5)" fill="#ffdc3c"/></g><text transform="translate(195 327)" font-size="12" font-family="NotoSansCJKkr-Regular, Noto Sans CJK KR" letter-spacing="-0.025em" opacity="0.6"><tspan x="0" y="0">“여기 안전한거야?”</tspan></text><g transform="matrix(1, 0, 0, 1, 124.5, 197.5)" filter="url(#c)"><path d="M-2451.11,9.293c6.344-.065,7.53-4.308,7.679-6.793h-5.068a8,8,0,0,1-8-8v-27a8,8,0,0,1,8-8h104a8,8,0,0,1,8,8v27a8,8,0,0,1-8,8h-87.057c-1.842,6.8-9.007,8.5-14.554,8.5C-2451.593,11-2455.493,9.339-2451.11,9.293Z" transform="translate(2475.5 106.5)" fill="#fee46c"/></g><text transform="translate(159 290)" font-size="12" font-family="NotoSansCJKkr-Regular, Noto Sans CJK KR" letter-spacing="-0.025em" opacity="0.6"><tspan x="0" y="0">“소독은 잘 된건가?”</tspan></text><g transform="matrix(1, 0, 0, 1, 124.5, 197.5)" filter="url(#e)"><path d="M-2374.443,2.5H-2452.5a8,8,0,0,1-8-8v-27a8,8,0,0,1,8-8h95a8,8,0,0,1,8,8v27a8,8,0,0,1-8,8h-5.069c.149,2.485,1.335,6.728,7.68,6.793,4.382.045.481,1.707-5,1.707C-2365.436,11-2372.6,9.3-2374.443,2.5Z" transform="translate(2556.5 48.5)" fill="#feed9d"/></g><text transform="translate(229 232)" font-size="12" font-family="NotoSansCJKkr-Regular, Noto Sans CJK KR" letter-spacing="-0.025em" opacity="0.6"><tspan x="0" y="0">“언제 소독한거지?”</tspan></text><g transform="matrix(1, 0, 0, 1, 124.5, 197.5)" filter="url(#g)"><circle cx="7" cy="7" r="7" transform="translate(119.5 61.5)" fill="#fff"/></g><g transform="matrix(1, 0, 0, 1, 124.5, 197.5)" filter="url(#i)"><circle cx="7" cy="7" r="7" transform="translate(141.5 61.5)" fill="#fff"/></g><g transform="matrix(1, 0, 0, 1, 124.5, 197.5)" filter="url(#k)"><circle cx="7" cy="7" r="7" transform="translate(163.5 61.5)" fill="#fff"/></g></g></svg>