<svg xmlns="http://www.w3.org/2000/svg" xmlns:xlink="http://www.w3.org/1999/xlink" width="142" height="75.5" viewBox="0 0 142 75.5"><defs><filter id="a" x="0" y="0" width="142" height="67" filterUnits="userSpaceOnUse"><feOffset dx="2" dy="4" input="SourceAlpha"/><feGaussianBlur stdDeviation="4" result="b"/><feFlood flood-color="#fedc3c" flood-opacity="0.2"/><feComposite operator="in" in2="b"/><feComposite in="SourceGraphic"/></filter><filter id="c" x="92.5" y="35.5" width="46" height="40" filterUnits="userSpaceOnUse"><feOffset dx="2" dy="4" input="SourceAlpha"/><feGaussianBlur stdDeviation="4" result="d"/><feFlood flood-color="#fedc3c" flood-opacity="0.2"/><feComposite operator="in" in2="d"/><feComposite in="SourceGraphic"/></filter></defs><g transform="translate(-2974 -130)"><g transform="matrix(1, 0, 0, 1, 2974, 130)" filter="url(#a)"><rect width="118" height="43" rx="8" transform="translate(10 8)" fill="#feed9d"/></g><g transform="matrix(1, 0, 0, 1, 2974, 130)" filter="url(#c)"><path d="M2631.379,320.526s-1.357,8.462,7.624,8.554-16.819,6.972-19.735-7.566S2631.379,320.526,2631.379,320.526Z" transform="translate(-2516.39 -271.29)" fill="#feed9d"/></g><path d="M2.2-9.329A2.641,2.641,0,0,0,.756-6.922c0,.778.316,1.215.851,1.215a.677.677,0,0,0,.717-.741.673.673,0,0,0-.717-.681.375.375,0,0,0-.122.012,1.924,1.924,0,0,1,1.033-1.69Zm2.382,0A2.651,2.651,0,0,0,3.15-6.922c0,.778.3,1.215.839,1.215a.686.686,0,0,0,.729-.741.683.683,0,0,0-.729-.681.337.337,0,0,0-.109.012A1.936,1.936,0,0,1,4.9-8.806ZM7.222-6.46a1.791,1.791,0,0,1,1.86-1.848,1.8,1.8,0,0,1,1.86,1.848,1.775,1.775,0,0,1-1.86,1.811A1.769,1.769,0,0,1,7.222-6.46Zm6.855.425v4.193h1.009V-9.876H14.078v3.027H11.865A2.681,2.681,0,0,0,9.082-9.183,2.68,2.68,0,0,0,6.274-6.46,2.665,2.665,0,0,0,9.082-3.774a2.675,2.675,0,0,0,2.771-2.261Zm-4.959,6V-2.644H8.11V.784H15.39V-.031ZM20.179-7.785h1.945V-8.6H17.153v.814h2.066V-6.8a5.689,5.689,0,0,1-2.37,4.9l.608.741a5.644,5.644,0,0,0,2.249-3.452,5.213,5.213,0,0,0,2.188,3.185l.608-.729A5.282,5.282,0,0,1,20.179-6.8ZM23.1-5.962H21.3v.814h1.8v5.6h.948V-9.633H23.1Zm2.188-3.926v10.9h.96v-10.9Zm14.4,5.336C37.779-4.892,35.7-6.5,35.7-8.308v-.839H34.655v.839c0,1.811-2.066,3.415-3.975,3.756l.413.827a5.877,5.877,0,0,0,4.084-3.039,5.9,5.9,0,0,0,4.084,3.039ZM35.676-1.21v-2.65h-1v2.65h-4.4V-.4h9.894V-1.21Zm6.576-.559h6.564V1.112h1.009v-3.7H42.252Zm4.339-2.674v-1.3H49.9v-.8h-6.5V-8.636H49.8v-.8H42.4v3.7h3.2v1.3H41.158v.8h9.87v-.8ZM58.5-8.539H55.78V-9.864h-1v1.325h-2.71v.8H58.5ZM53.629-5.111c0-.754.656-1.24,1.653-1.24s1.665.486,1.665,1.24-.681,1.252-1.665,1.252S53.629-4.345,53.629-5.111Zm4.266,0c0-1.215-1.07-2.018-2.613-2.018s-2.6.8-2.6,2.018,1.057,2.03,2.6,2.03S57.9-3.884,57.9-5.111ZM54.711-2.34h-1V.784h7.269V-.031H54.711ZM60.5-6.278V-9.864h-1V-1.7h1V-5.439h1.617v-.839ZM63.389-8.7v.8h3.975c-.182,2.552-1.531,4.631-4.461,6.065l.547.778A8,8,0,0,0,68.36-8.7Zm7.5-1.167V-5.5H68.336v.814h2.552V1.027h1V-9.864Zm6.794,1.933h2.565v-.827h-6.09v.827h2.528v1.386a5.576,5.576,0,0,1-2.893,4.68l.583.8a6.114,6.114,0,0,0,2.808-3.6,5.76,5.76,0,0,0,2.856,3.33l.559-.8a5.076,5.076,0,0,1-2.917-4.412Zm4.035-1.933V1.027h1V-9.864Zm4.473,7.3h.985c-.219-1.908,1.969-2.625,1.969-4.412a2.079,2.079,0,0,0-2.273-2.164A3.034,3.034,0,0,0,84.55-8.016l.632.583a2.073,2.073,0,0,1,1.568-.778A1.23,1.23,0,0,1,88.063-6.9C88.063-5.452,85.912-4.674,86.191-2.559ZM86.714.285a.805.805,0,0,0,.814-.839.826.826,0,0,0-.814-.863.824.824,0,0,0-.8.863A.8.8,0,0,0,86.714.285Zm3.659-6.017a2.641,2.641,0,0,0,1.446-2.407c0-.778-.328-1.228-.863-1.228a.68.68,0,0,0-.7.741.672.672,0,0,0,.7.693.375.375,0,0,0,.122-.012,1.926,1.926,0,0,1-1.021,1.69Zm2.382,0A2.641,2.641,0,0,0,94.2-8.138c0-.778-.316-1.228-.851-1.228a.683.683,0,0,0-.717.741.676.676,0,0,0,.717.693.414.414,0,0,0,.122-.012,1.915,1.915,0,0,1-1.033,1.69Z" transform="translate(2995.244 163.888)" opacity="0.6"/></g></svg>