<svg xmlns="http://www.w3.org/2000/svg" width="80" height="80" viewBox="0 0 80 80"><path d="M56.067,8.367A4.981,4.981,0,0,0,51.333,5H14.667A5.012,5.012,0,0,0,9.933,8.367L3,28.333V55a3.343,3.343,0,0,0,3.333,3.333H9.667A3.343,3.343,0,0,0,13,55V51.667H53V55a3.343,3.343,0,0,0,3.333,3.333h3.333A3.343,3.343,0,0,0,63,55V28.333Zm-41.4,33.3a5,5,0,1,1,5-5A4.993,4.993,0,0,1,14.667,41.667Zm36.667,0a5,5,0,1,1,5-5A4.993,4.993,0,0,1,51.333,41.667ZM9.667,25l5-15H51.333l5,15Z" transform="translate(7 11.667)" fill="#1a1311"/><path d="M0,0H80V80H0Z" fill="none"/></svg>