<svg xmlns="http://www.w3.org/2000/svg" width="44" height="44" viewBox="0 0 44 44"><g transform="translate(12 12)"><g transform="translate(-12 -12)"><path d="M0,0H44V44H0Z" fill="none"/><path d="M16.833,7.667a9.206,9.206,0,0,1,6.49,2.677L18.667,15h11V4L25.908,7.758A12.822,12.822,0,0,0,4.147,15h3.7A9.167,9.167,0,0,1,16.833,7.667Zm10.34,16.757a12.63,12.63,0,0,0,2.347-5.757h-3.7a9.182,9.182,0,0,1-15.473,4.657L15,18.667H4v11l3.758-3.758a12.819,12.819,0,0,0,16.665,1.265l8.91,8.892,2.732-2.732-8.892-8.91Z" transform="translate(3.333 3.333)"/></g></g></svg>