<svg xmlns="http://www.w3.org/2000/svg" xmlns:xlink="http://www.w3.org/1999/xlink" width="320" height="138" viewBox="0 0 320 138"><defs><linearGradient id="a" y1="1" x2="1" y2="1" gradientUnits="objectBoundingBox"><stop offset="0" stop-color="#feed9d"/><stop offset="0.557" stop-color="#fedc3c"/><stop offset="0.803" stop-color="#c9cf6d"/><stop offset="1" stop-color="#72b68b"/></linearGradient></defs><g transform="translate(-20 -2557)"><g transform="translate(0 27)"><line x2="320" transform="translate(20 2530.5)" fill="none" stroke="#fff" stroke-width="1"/><line x2="320" transform="translate(20 2557.5)" fill="none" stroke="#fff" stroke-width="1"/><line x2="320" transform="translate(20 2584.5)" fill="none" stroke="#fff" stroke-width="1"/><line x2="320" transform="translate(20 2612.5)" fill="none" stroke="#fff" stroke-width="1"/><line x2="320" transform="translate(20 2639.5)" fill="none" stroke="#fff" stroke-width="1"/><line x2="320" transform="translate(20 2667.5)" fill="none" stroke="#fff" stroke-width="1"/></g><path d="M2842.5,2693.746c-73.988-4.736-71.6-56.961-86.223-58.9s-9.424,30.083-38.43,27.3-48.015-83.963-76.81-81.228-49.306,81.228-80.828,81.228-37.708-49.879-37.708-49.879v87.752h320Z" transform="translate(-2502.5 -5.523)" fill="url(#a)"/><g transform="translate(313 2680)" fill="#72b68b" stroke="#fff" stroke-width="2"><circle cx="4.5" cy="4.5" r="4.5" stroke="none"/><circle cx="4.5" cy="4.5" r="3.5" fill="none"/></g><path d="M-2402-21h-51a4,4,0,0,1-4-4V-37a4,4,0,0,1,4-4h52a4,4,0,0,1,4,4v21Z" transform="translate(2715 2692)" fill="#54b987"/><text transform="translate(264 2665)" fill="#fbfbfb" font-size="12" font-family="NotoSansCJKkr-Regular, Noto Sans CJK KR" letter-spacing="-0.025em"><tspan x="0" y="0">0.09ppm</tspan></text></g></svg>