<svg xmlns="http://www.w3.org/2000/svg" width="132" height="128" viewBox="0 0 132 128"><g transform="translate(-114 -1005)"><path d="M1042.964,303.592V309.1l-66-37.884v-5.508Z" transform="translate(-862.964 823.899)" fill="#e6e6e6"/><path d="M1108.964,200.394l-66,37.884-66-37.884,66-37.884Z" transform="translate(-862.964 889.214)" fill="#f2f2f2"/><path d="M1155.7,303.592V309.1l66-37.884v-5.508Z" transform="translate(-975.704 823.899)" fill="#ccc"/><path d="M1155.7,43.439V90.163l63.375,36.377V79.816Z" transform="translate(-975.704 964.575)" fill="#e6e6e6"/><path d="M1214.6,74.62l-66-37.884,2.625-1.507,66,37.884Z" transform="translate(-971.22 969.77)" fill="#f2f2f2"/><path d="M1329.96,138.428v46.724l-2.625,1.507V139.935Z" transform="translate(-1083.96 904.456)" fill="#ccc"/><path d="M1047.448,43.439V90.163L984.073,126.54V79.816Z" transform="translate(-867.448 964.575)" fill="#d9d9d9"/><path d="M979.589,74.62l66-37.884-2.625-1.507-66,37.884Z" transform="translate(-862.964 969.77)" fill="#f2f2f2"/><path d="M976.964,138.428v46.724l2.625,1.507V139.935Z" transform="translate(-862.964 904.456)" fill="#e6e6e6"/></g></svg>