<svg xmlns="http://www.w3.org/2000/svg" xmlns:xlink="http://www.w3.org/1999/xlink" width="76" height="76" viewBox="0 0 76 76"><defs><filter id="a" x="0" y="0" width="76" height="76" filterUnits="userSpaceOnUse"><feOffset dx="2" dy="4" input="SourceAlpha"/><feGaussianBlur stdDeviation="6" result="b"/><feFlood flood-color="#fedc3c" flood-opacity="0.6"/><feComposite operator="in" in2="b"/><feComposite in="SourceGraphic"/></filter><filter id="c" x="18.003" y="20.674" width="36.469" height="32.592" filterUnits="userSpaceOnUse"><feOffset dy="3" input="SourceAlpha"/><feGaussianBlur stdDeviation="3" result="d"/><feFlood flood-color="#e1c335" flood-opacity="0.4"/><feComposite operator="in" in2="d"/><feComposite in="SourceGraphic"/></filter></defs><g transform="translate(-204 -720)"><g transform="matrix(1, 0, 0, 1, 204, 720)" filter="url(#a)"><circle cx="20" cy="20" r="20" transform="translate(16 14)" fill="#ffdc3c"/></g><g transform="matrix(1, 0, 0, 1, 204, 720)" filter="url(#c)"><path d="M-2.708.266c3.724,0,6.289-2.793,6.289-7.353s-2.565-7.239-6.289-7.239S-9-11.666-9-7.087C-9-2.527-6.432.266-2.708.266Zm0-2.432c-2.09,0-3.42-1.919-3.42-4.921,0-3.021,1.33-4.826,3.42-4.826s3.42,1.8,3.42,4.826C.712-4.085-.618-2.166-2.708-2.166ZM6.872.14c1.41,0,2.6-.79,2.6-2.15a1.849,1.849,0,0,0-1.48-1.82v-.05a1.753,1.753,0,0,0,1.24-1.69c0-1.27-.97-1.97-2.4-1.97a3.283,3.283,0,0,0-2.22.91l.75.9a2.112,2.112,0,0,1,1.4-.66.884.884,0,0,1,.99.93c0,.66-.44,1.13-1.8,1.13v1.06c1.61,0,2.04.45,2.04,1.18,0,.66-.51,1.03-1.26,1.03a2.351,2.351,0,0,1-1.65-.76l-.69.93A3.146,3.146,0,0,0,6.872.14Z" transform="translate(36 41)" fill="#fff"/></g><path d="M2724.58,755.166s5.891-3.514,9.681,5.784,10.319,4.134,10.319,4.134" transform="matrix(-0.259, -0.966, 0.966, -0.259, 229.544, 3618.449)" fill="none" stroke="#000" stroke-width="1" stroke-dasharray="2" opacity="0.3"/></g></svg>