<svg xmlns="http://www.w3.org/2000/svg" width="68" height="120" viewBox="0 0 68 120"><g transform="translate(-146 -1443)"><rect width="68" height="120" rx="4" transform="translate(146 1443)" fill="#f2f2f2"/><rect width="60" height="104" rx="1" transform="translate(150 1447)" fill="#ffdc3c"/><g transform="translate(189.118 1508.118)"><path d="M0,13.714H13.714V0H0ZM4.571,4.571H9.143V9.143H4.571ZM18.286,0V13.714H32V0Zm9.143,9.143H22.857V4.571h4.571ZM0,32H13.714V18.286H0Zm4.571-9.143H9.143v4.571H4.571Zm25.143-4.571H32v9.143H25.143V25.143H22.857V32H18.286V18.286h6.857v2.286h4.571Zm0,11.429H32V32H29.714Zm-4.571,0h2.286V32H25.143Z" transform="translate(-25.118 -25.118)" fill="#fff"/></g></g></svg>