<svg xmlns="http://www.w3.org/2000/svg" xmlns:xlink="http://www.w3.org/1999/xlink" width="106" height="106" viewBox="0 0 106 106"><defs><filter id="a" x="0" y="0" width="106" height="106" filterUnits="userSpaceOnUse"><feOffset dx="2" dy="4" input="SourceAlpha"/><feGaussianBlur stdDeviation="7" result="b"/><feFlood flood-color="#fedc3c" flood-opacity="0.6"/><feComposite operator="in" in2="b"/><feComposite in="SourceGraphic"/></filter><filter id="c" x="27.189" y="29.118" width="50.415" height="43.344" filterUnits="userSpaceOnUse"><feOffset dy="3" input="SourceAlpha"/><feGaussianBlur stdDeviation="3" result="d"/><feFlood flood-color="#e1c335" flood-opacity="0.4"/><feComposite operator="in" in2="d"/><feComposite in="SourceGraphic"/></filter></defs><g transform="translate(-101 -732)"><g transform="matrix(1, 0, 0, 1, 101, 732)" filter="url(#a)"><circle cx="32" cy="32" r="32" transform="translate(19 17)" fill="#ffdc3c"/></g><g transform="matrix(1, 0, 0, 1, 101, 732)" filter="url(#c)"><path d="M-4.889.462C1.579.462,6.035-4.389,6.035-12.309S1.579-24.882-4.889-24.882s-10.923,4.62-10.923,12.573C-15.812-4.389-11.357.462-4.889.462Zm0-4.224c-3.63,0-5.94-3.333-5.94-8.547,0-5.247,2.31-8.382,5.94-8.382s5.94,3.135,5.94,8.382C1.052-7.1-1.258-3.762-4.889-3.762ZM11.923.252c2.538,0,4.68-1.422,4.68-3.87a3.329,3.329,0,0,0-2.664-3.276v-.09a3.156,3.156,0,0,0,2.232-3.042c0-2.286-1.746-3.546-4.32-3.546a5.91,5.91,0,0,0-4,1.638l1.35,1.62a3.8,3.8,0,0,1,2.52-1.188,1.592,1.592,0,0,1,1.782,1.674c0,1.188-.792,2.034-3.24,2.034v1.908c2.9,0,3.672.81,3.672,2.124,0,1.188-.918,1.854-2.268,1.854A4.231,4.231,0,0,1,8.7-3.276L7.459-1.6A5.662,5.662,0,0,0,11.923.252Z" transform="translate(52 60)" fill="#fff"/></g></g></svg>