<svg xmlns="http://www.w3.org/2000/svg" width="112" height="80" viewBox="0 0 112 80"><g transform="translate(-124 -701)"><g transform="translate(123.962 710)"><g transform="translate(14.262 14.103)" opacity="0.6"><path d="M21.7,10.21H20.73a2.552,2.552,0,0,1-1.805-4.357l.683-.684a1.276,1.276,0,0,0-1.8-1.8l-.684.683a2.553,2.553,0,0,1-4.357-1.805V1.277a1.277,1.277,0,0,0-2.553,0v.967A2.553,2.553,0,0,1,5.853,4.049l-.684-.683a1.276,1.276,0,0,0-1.8,1.8l.684.684A2.552,2.552,0,0,1,2.244,10.21H1.277a1.276,1.276,0,1,0,0,2.553h.967a2.553,2.553,0,0,1,1.805,4.358l-.683.684a1.277,1.277,0,0,0,1.8,1.8l.684-.684a2.552,2.552,0,0,1,4.357,1.805V21.7a1.277,1.277,0,1,0,2.553,0V20.73a2.552,2.552,0,0,1,4.357-1.805l.684.683a1.277,1.277,0,0,0,1.8-1.8l-.684-.684a2.553,2.553,0,0,1,1.805-4.358H21.7a1.276,1.276,0,1,0,0-2.553ZM10.051,12.2A2.154,2.154,0,1,1,12.2,10.051,2.154,2.154,0,0,1,10.051,12.2Zm3.59,2.513a1.077,1.077,0,1,1,1.077-1.077A1.077,1.077,0,0,1,13.64,14.718Z" transform="translate(-11.486 -11.486)" fill="#464953"/></g><rect width="28" height="28" transform="translate(0.038 0)" fill="none"/></g><g transform="translate(156.333 701)"><g transform="translate(40.134 39.921)"><path d="M61.541,28.962H58.8A7.24,7.24,0,0,1,53.679,16.6l1.938-1.941A3.62,3.62,0,0,0,50.5,9.547l-1.94,1.937A7.24,7.24,0,0,1,36.2,6.363V3.621a3.621,3.621,0,0,0-7.242,0V6.365A7.24,7.24,0,0,1,16.6,11.485l-1.94-1.938a3.62,3.62,0,0,0-5.116,5.115L11.486,16.6a7.24,7.24,0,0,1-5.12,12.359H3.621a3.621,3.621,0,1,0,0,7.241H6.363a7.241,7.241,0,0,1,5.12,12.36L9.545,50.5a3.621,3.621,0,0,0,5.116,5.116l1.94-1.941A7.24,7.24,0,0,1,28.96,58.8v2.741a3.621,3.621,0,1,0,7.242,0V58.8a7.24,7.24,0,0,1,12.359-5.12l1.94,1.938A3.621,3.621,0,0,0,55.617,50.5l-1.941-1.94A7.241,7.241,0,0,1,58.8,36.2h2.741a3.621,3.621,0,1,0,0-7.241ZM28.508,34.619a6.109,6.109,0,1,1,6.109-6.109,6.109,6.109,0,0,1-6.109,6.109ZM38.69,41.746a3.054,3.054,0,1,1,3.054-3.054A3.054,3.054,0,0,1,38.69,41.746Z" transform="translate(-32.579 -32.58)" fill="#464953"/></g><rect width="80" height="80" transform="translate(-0.333 0)" fill="none"/></g></g></svg>