<svg xmlns="http://www.w3.org/2000/svg" xmlns:xlink="http://www.w3.org/1999/xlink" width="102.768" height="95" viewBox="0 0 102.768 95"><defs><filter id="a" x="48.768" y="41" width="54" height="54" filterUnits="userSpaceOnUse"><feOffset dy="2" input="SourceAlpha"/><feGaussianBlur stdDeviation="5" result="b"/><feFlood flood-color="#66bceb" flood-opacity="0.502"/><feComposite operator="in" in2="b"/><feComposite in="SourceGraphic"/></filter><filter id="c" x="0" y="0" width="76" height="76" filterUnits="userSpaceOnUse"><feOffset dx="2" dy="4" input="SourceAlpha"/><feGaussianBlur stdDeviation="6" result="d"/><feFlood flood-color="#66bceb" flood-opacity="0.4"/><feComposite operator="in" in2="d"/><feComposite in="SourceGraphic"/></filter></defs><g transform="translate(-114.232 -1118.183)"><g transform="translate(-136.535 32)"><g transform="matrix(1, 0, 0, 1, 250.77, 1086.18)" filter="url(#a)"><path d="M12,0A12,12,0,1,1,0,12,12,12,0,0,1,12,0Z" transform="translate(63.77 54)" fill="#37bef0"/></g><path d="M-1.617.168C.735.168,2.355-1.6,2.355-4.476S.735-9.048-1.617-9.048s-3.972,1.68-3.972,4.572S-3.969.168-1.617.168Zm0-1.536c-1.32,0-2.16-1.212-2.16-3.108s.84-3.048,2.16-3.048S.543-6.384.543-4.476-.3-1.368-1.617-1.368Z" transform="translate(326.535 1156.183)" fill="#fff"/><path d="M.187,1.592H3.218V.834H2.234c-.208,0-.507.024-.733.049A4.079,4.079,0,0,0,3-1.623,1.327,1.327,0,0,0,1.58-3.016a1.834,1.834,0,0,0-1.436.684l.489.489a1.172,1.172,0,0,1,.831-.464.649.649,0,0,1,.678.733c0,.7-.727,1.546-1.956,2.646Z" transform="translate(329.456 1154.516)" fill="#fff"/></g><g transform="translate(-135.535)"><g transform="matrix(1, 0, 0, 1, 249.77, 1118.18)" filter="url(#c)"><path d="M20,0A20,20,0,1,1,0,20,20,20,0,0,1,20,0Z" transform="translate(16 14)" fill="#37bef0"/></g><g transform="translate(-43.946 -2.135)"><path d="M.7,5.542c3.724,0,6.288-2.793,6.288-7.352S4.423-9.048.7-9.048-5.589-6.388-5.589-1.81C-5.589,2.749-3.024,5.542.7,5.542ZM.7,3.11c-2.09,0-3.42-1.919-3.42-4.92,0-3.021,1.33-4.825,3.42-4.825s3.42,1.8,3.42,4.825C4.119,1.192,2.789,3.11.7,3.11Z" transform="translate(326.535 1156.183)" fill="#fff"/><path d="M.212,4.279h4.8v-1.2H3.453c-.329,0-.8.039-1.161.077C3.6,1.88,4.672.486,4.672-.81A2.1,2.1,0,0,0,2.418-3.016,2.9,2.9,0,0,0,.144-1.932l.774.774a1.855,1.855,0,0,1,1.316-.735A1.027,1.027,0,0,1,3.308-.733c0,1.1-1.151,2.448-3.1,4.189Z" transform="translate(334.502 1157.151)" fill="#fff"/></g></g></g></svg>