<svg xmlns="http://www.w3.org/2000/svg" xmlns:xlink="http://www.w3.org/1999/xlink" width="281" height="235" viewBox="0 0 281 235"><defs><filter id="a" x="175" y="0" width="106" height="106" filterUnits="userSpaceOnUse"><feOffset dx="2" dy="4" input="SourceAlpha"/><feGaussianBlur stdDeviation="7" result="b"/><feFlood flood-color="#fedc3c" flood-opacity="0.6"/><feComposite operator="in" in2="b"/><feComposite in="SourceGraphic"/></filter><filter id="c" x="0" y="113" width="76" height="76" filterUnits="userSpaceOnUse"><feOffset dx="2" dy="4" input="SourceAlpha"/><feGaussianBlur stdDeviation="6" result="d"/><feFlood flood-color="#fedc3c" flood-opacity="0.6"/><feComposite operator="in" in2="d"/><feComposite in="SourceGraphic"/></filter><filter id="e" x="194" y="137" width="76" height="76" filterUnits="userSpaceOnUse"><feOffset dx="2" dy="4" input="SourceAlpha"/><feGaussianBlur stdDeviation="6" result="f"/><feFlood flood-color="#ffdc3c"/><feComposite operator="in" in2="f"/><feComposite in="SourceGraphic"/></filter><filter id="g" x="210" y="150" width="40" height="46" filterUnits="userSpaceOnUse"><feOffset dy="3" input="SourceAlpha"/><feGaussianBlur stdDeviation="3" result="h"/><feFlood flood-color="#c5ab2e" flood-opacity="0.6"/><feComposite operator="in" in2="h"/><feComposite in="SourceGraphic"/></filter></defs><g transform="translate(-78 -1768)"><g transform="translate(41.705 100.068)"><circle cx="21" cy="21" r="21" transform="translate(198.295 1712.932)" fill="#fff"/><circle cx="15.5" cy="15.5" r="15.5" transform="translate(174.295 1723.932)" fill="#fff"/><circle cx="12" cy="12" r="12" transform="translate(230.295 1730.932)" fill="#fff"/><rect width="52" height="16" transform="translate(190.295 1738.932)" fill="#fff"/></g><g transform="translate(24 113)"><g transform="matrix(1, 0, 0, 1, 54, 1655)" filter="url(#a)"><circle cx="32" cy="32" r="32" transform="translate(194 17)" fill="#fff"/></g><text transform="translate(281 1715)" fill="#ffdc3c" font-size="33" font-family="NotoSansCJKkr-Bold, Noto Sans CJK KR" font-weight="700" letter-spacing="-0.025em"><tspan x="-17.594" y="0">O</tspan><tspan y="0" font-size="18">3</tspan></text></g><g transform="translate(-36 127)"><g transform="matrix(1, 0, 0, 1, 114, 1641)" filter="url(#c)"><circle cx="20" cy="20" r="20" transform="translate(16 127)" fill="#fff"/></g><text transform="translate(150 1795)" fill="#ffdc3c" font-size="19" font-family="NotoSansCJKkr-Bold, Noto Sans CJK KR" font-weight="700" letter-spacing="-0.025em"><tspan x="-10.023" y="0">O</tspan><tspan y="0" font-size="10">3</tspan></text></g><g transform="translate(180 1877)" fill="#464953" stroke="#fff" stroke-width="6"><rect width="140" height="70" rx="8" stroke="none"/><rect x="3" y="3" width="134" height="64" rx="5" fill="none"/></g><text transform="translate(250 1927)" fill="#ffdc3c" font-size="24" font-family="NotoSansCJKkr-Bold, Noto Sans CJK KR" font-weight="700" letter-spacing="-0.025em"><tspan x="-50.328" y="0">0.09ppm</tspan></text><g transform="matrix(1, 0, 0, 1, 78, 1768)" filter="url(#e)"><circle cx="20" cy="20" r="20" transform="translate(210 151)" fill="#feed9d"/></g><g transform="matrix(1, 0, 0, 1, 78, 1768)" filter="url(#g)"><text transform="translate(230 178)" fill="#fff" font-size="19" font-family="NotoSansCJKkr-Bold, Noto Sans CJK KR" font-weight="700" letter-spacing="-0.025em"><tspan x="-10.023" y="0">O</tspan><tspan y="0" font-size="10">3</tspan></text></g><text transform="translate(250 1901)" fill="#fff" font-size="10" font-family="NotoSansCJKkr-Regular, Noto Sans CJK KR" letter-spacing="-0.025em" opacity="0.6"><tspan x="-27.97" y="0">오존농도 보통</tspan></text><rect width="49" height="56" transform="translate(226 1947)" fill="#e6e6e6"/><rect width="49" height="8" transform="translate(226 1947)" fill="#d9d9d9"/><circle cx="6" cy="6" r="6" transform="translate(142 1875)" fill="#fff"/><g transform="translate(-50 232)"><circle cx="12" cy="12" r="12" transform="translate(188 1713)" fill="#fff"/><circle cx="9" cy="9" r="9" transform="translate(174 1719)" fill="#fff"/><circle cx="7" cy="7" r="7" transform="translate(206 1723)" fill="#fff"/><rect width="30" height="9" transform="translate(183 1728)" fill="#fff"/></g></g></svg>