<?xml version="1.0" encoding="utf-8"?>
<!-- Generator: Adobe Illustrator 25.4.1, SVG Export Plug-In . SVG Version: 6.00 Build 0)  -->
<svg version="1.1" id="레이어_1" xmlns="http://www.w3.org/2000/svg" xmlns:xlink="http://www.w3.org/1999/xlink" width="281" height="235" viewBox="0 0 281 235" style="enable-background:new 0 0 281 235;" xml:space="preserve">
<style type="text/css">
	.st0{fill:#FFFFFF;}
	.st1{fill:#FFDC3C;}
	.st2{font-family:'NotoSansCJKkr-Medium-KSCpc-EUC-H';}
	.st3{font-size:33px;}
	.st4{font-size:18px;}
	.st5{font-size:19px;}
	.st6{font-size:10px;}
	.st7{fill:#464953;}
	.st8{fill:none;stroke:#FFFFFF;stroke-width:6;}
	.st9{font-family:'NotoSansCJKkr-Bold-KSCpc-EUC-H';}
	.st10{font-size:24px;}
	.st11{fill:#FEED9D;}
	.st12{enable-background:new    ;}
	.st13{fill:#E6E6E6;}
	.st14{fill:#D9D9D9;}
</style>
<g>
	<g transform="translate(41.705 100.068)">
		<circle class="st0" cx="141.3" cy="-34.1" r="21"/>
		<circle class="st0" cx="111.8" cy="-28.6" r="15.5"/>
		<circle class="st0" cx="164.3" cy="-25.1" r="12"/>
		<rect x="112.3" y="-29.1" class="st0" width="52" height="16"/>
	</g>
	<g transform="matrix(1, 0, 0, 1, 54, 1655)">
		<circle class="st0" cx="172" cy="-1606" r="32"/>
	</g>
	<text transform="matrix(1 0 0 1 207.406 60)" class="st1 st2 st3">O</text>
	<text transform="matrix(1 0 0 1 231.3807 60)" class="st1 st2 st4">3</text>
	<g transform="matrix(1, 0, 0, 1, 114, 1641)">
		<circle class="st0" cx="-78" cy="-1494" r="20"/>
	</g>
	<text transform="matrix(1 0 0 1 24.977 154)" class="st1 st2 st5">O</text>
	<text transform="matrix(1 0 0 1 38.9018 154)" class="st1 st2 st6">3</text>
	<g transform="translate(180 1877)">
		<path class="st7" d="M-70-1768H54c4.4,0,8,3.6,8,8v54c0,4.4-3.6,8-8,8H-70c-4.4,0-8-3.6-8-8v-54C-78-1764.4-74.4-1768-70-1768z"/>
		<path class="st8" d="M-70-1765H54c2.8,0,5,2.2,5,5v54c0,2.8-2.2,5-5,5H-70c-2.8,0-5-2.2-5-5v-54C-75-1762.8-72.8-1765-70-1765z"/>
	</g>
	<text transform="matrix(1 0 0 1 121.672 159)" class="st1 st9 st10">0.09ppm</text>
	<g transform="matrix(1, 0, 0, 1, 78, 1768)">
		<circle class="st11" cx="152" cy="-1597" r="20"/>
	</g>
	<g transform="matrix(1, 0, 0, 1, 78, 1768)">
		<text transform="matrix(1 0 0 1 141.977 -1590)" class="st0 st2 st5">O</text>
		<text transform="matrix(1 0 0 1 154.9018 -1590)" class="st0 st2 st6">3</text>
	</g>
	<g class="st12">
		<path class="st0" d="M112.7,129.7c0-2.1,1.2-3.4,2.8-3.4c1.7,0,2.8,1.3,2.8,3.4c0,2.1-1.2,3.4-2.8,3.4
			C113.8,133.1,112.7,131.8,112.7,129.7z M117.5,129.7c0-1.7-0.8-2.7-2-2.7c-1.2,0-2,1-2,2.7c0,1.6,0.8,2.7,2,2.7
			C116.7,132.4,117.5,131.3,117.5,129.7z"/>
		<path class="st0" d="M118.7,132.6l2.6-3.8H119v-0.7h3.3v0.4l-2.6,3.8h2.7v0.7h-3.7V132.6z"/>
		<path class="st0" d="M122.7,130.6c0-1.6,1.1-2.6,2.3-2.6c1.2,0,2.3,0.9,2.3,2.6c0,1.6-1.1,2.6-2.3,2.6
			C123.7,133.1,122.7,132.2,122.7,130.6z M126.4,130.6c0-1.1-0.6-1.9-1.4-1.9c-0.8,0-1.4,0.8-1.4,1.9c0,1.1,0.6,1.9,1.4,1.9
			C125.8,132.4,126.4,131.7,126.4,130.6z"/>
		<path class="st0" d="M128.1,128.1h0.7l0.1,0.7h0c0.5-0.5,1-0.8,1.6-0.8c1,0,1.5,0.7,1.5,1.9v3.1h-0.8v-3c0-0.9-0.3-1.3-0.9-1.3
			c-0.5,0-0.8,0.3-1.3,0.7v3.5h-0.8V128.1z"/>
		<path class="st0" d="M132.9,130.6c0-1.6,1.1-2.6,2.2-2.6c1.2,0,1.9,0.9,1.9,2.3c0,0.2,0,0.4,0,0.5h-3.3c0.1,1,0.7,1.7,1.6,1.7
			c0.5,0,0.9-0.1,1.2-0.4l0.3,0.5c-0.4,0.3-1,0.5-1.6,0.5C133.9,133.1,132.9,132.2,132.9,130.6z M136.3,130.2c0-1-0.5-1.5-1.2-1.5
			c-0.7,0-1.3,0.6-1.4,1.5H136.3z"/>
		<path class="st0" d="M139.2,130.6c0-1.6,1.1-2.6,2.4-2.6c0.6,0,1.1,0.3,1.4,0.6l-0.4,0.5c-0.3-0.3-0.6-0.4-1-0.4
			c-0.9,0-1.5,0.8-1.5,1.9c0,1.1,0.6,1.9,1.5,1.9c0.5,0,0.8-0.2,1.2-0.5l0.4,0.5c-0.4,0.4-1,0.6-1.6,0.6
			C140.2,133.1,139.2,132.2,139.2,130.6z"/>
		<path class="st0" d="M143.2,130.6c0-1.6,1.1-2.6,2.3-2.6s2.3,0.9,2.3,2.6c0,1.6-1.1,2.6-2.3,2.6S143.2,132.2,143.2,130.6z
			 M146.9,130.6c0-1.1-0.6-1.9-1.4-1.9s-1.4,0.8-1.4,1.9c0,1.1,0.6,1.9,1.4,1.9S146.9,131.7,146.9,130.6z"/>
		<path class="st0" d="M148.6,128.1h0.7l0.1,0.7h0c0.5-0.5,1-0.8,1.6-0.8c1,0,1.5,0.7,1.5,1.9v3.1h-0.8v-3c0-0.9-0.3-1.3-0.9-1.3
			c-0.5,0-0.8,0.3-1.3,0.7v3.5h-0.8V128.1z"/>
		<path class="st0" d="M153.4,130.6c0-1.6,1.1-2.6,2.4-2.6c0.6,0,1.1,0.3,1.4,0.6l-0.4,0.5c-0.3-0.3-0.6-0.4-1-0.4
			c-0.9,0-1.5,0.8-1.5,1.9c0,1.1,0.6,1.9,1.5,1.9c0.5,0,0.8-0.2,1.2-0.5l0.4,0.5c-0.4,0.4-1,0.6-1.6,0.6
			C154.4,133.1,153.4,132.2,153.4,130.6z"/>
		<path class="st0" d="M157.4,130.6c0-1.6,1.1-2.6,2.2-2.6c1.2,0,1.9,0.9,1.9,2.3c0,0.2,0,0.4,0,0.5h-3.3c0.1,1,0.7,1.7,1.6,1.7
			c0.5,0,0.9-0.1,1.2-0.4l0.3,0.5c-0.4,0.3-1,0.5-1.6,0.5C158.5,133.1,157.4,132.2,157.4,130.6z M160.9,130.2c0-1-0.5-1.5-1.2-1.5
			c-0.7,0-1.3,0.6-1.4,1.5H160.9z"/>
		<path class="st0" d="M162.4,128.1h0.7l0.1,0.7h0c0.5-0.5,1-0.8,1.6-0.8c1,0,1.5,0.7,1.5,1.9v3.1h-0.8v-3c0-0.9-0.3-1.3-0.9-1.3
			c-0.5,0-0.8,0.3-1.3,0.7v3.5h-0.8V128.1z"/>
		<path class="st0" d="M167.7,131.5v-2.7H167v-0.6l0.8,0l0.1-1.4h0.7v1.4h1.3v0.7h-1.3v2.7c0,0.6,0.2,0.9,0.8,0.9
			c0.2,0,0.4-0.1,0.6-0.1l0.2,0.6c-0.3,0.1-0.6,0.2-0.9,0.2C168.1,133.1,167.7,132.5,167.7,131.5z"/>
		<path class="st0" d="M170.6,128.1h0.7l0.1,0.9h0c0.3-0.6,0.8-1,1.4-1c0.2,0,0.4,0,0.5,0.1l-0.2,0.7c-0.2-0.1-0.3-0.1-0.5-0.1
			c-0.4,0-0.9,0.3-1.2,1.1v3.1h-0.8V128.1z"/>
		<path class="st0" d="M173.2,131.7c0-1.1,0.9-1.6,3-1.8c0-0.6-0.2-1.2-1-1.2c-0.6,0-1.1,0.3-1.5,0.5l-0.3-0.6
			c0.5-0.3,1.1-0.6,1.9-0.6c1.2,0,1.7,0.8,1.7,2v3h-0.7l-0.1-0.6h0c-0.5,0.4-1,0.7-1.6,0.7C173.8,133.1,173.2,132.6,173.2,131.7z
			 M176.2,131.8v-1.4c-1.6,0.2-2.2,0.6-2.2,1.2c0,0.6,0.4,0.8,0.9,0.8C175.3,132.5,175.7,132.2,176.2,131.8z"/>
		<path class="st0" d="M178.2,131.5v-2.7h-0.7v-0.6l0.8,0l0.1-1.4h0.7v1.4h1.3v0.7H179v2.7c0,0.6,0.2,0.9,0.8,0.9
			c0.2,0,0.4-0.1,0.6-0.1l0.2,0.6c-0.3,0.1-0.6,0.2-0.9,0.2C178.6,133.1,178.2,132.5,178.2,131.5z"/>
		<path class="st0" d="M180.9,126.6c0-0.3,0.2-0.5,0.6-0.5c0.3,0,0.6,0.2,0.6,0.5c0,0.3-0.2,0.5-0.6,0.5
			C181.2,127.1,180.9,126.9,180.9,126.6z M181.1,128.1h0.8v4.9h-0.8V128.1z"/>
		<path class="st0" d="M182.8,130.6c0-1.6,1.1-2.6,2.3-2.6s2.3,0.9,2.3,2.6c0,1.6-1.1,2.6-2.3,2.6S182.8,132.2,182.8,130.6z
			 M186.5,130.6c0-1.1-0.6-1.9-1.4-1.9s-1.4,0.8-1.4,1.9c0,1.1,0.6,1.9,1.4,1.9S186.5,131.7,186.5,130.6z"/>
		<path class="st0" d="M188.3,128.1h0.7l0.1,0.7h0c0.5-0.5,1-0.8,1.6-0.8c1,0,1.5,0.7,1.5,1.9v3.1h-0.8v-3c0-0.9-0.3-1.3-0.9-1.3
			c-0.5,0-0.8,0.3-1.3,0.7v3.5h-0.8V128.1z"/>
		<path class="st0" d="M196.6,126.6c0-0.3,0.2-0.5,0.6-0.5s0.6,0.2,0.6,0.5c0,0.3-0.2,0.5-0.6,0.5S196.6,126.9,196.6,126.6z
			 M196.8,128.1h0.8v4.9h-0.8V128.1z"/>
		<path class="st0" d="M198.3,132.4l0.4-0.5c0.4,0.3,0.9,0.6,1.4,0.6c0.6,0,1-0.3,1-0.8c0-0.5-0.6-0.7-1.1-0.9
			c-0.7-0.3-1.5-0.6-1.5-1.4c0-0.8,0.6-1.4,1.7-1.4c0.6,0,1.1,0.3,1.5,0.5l-0.4,0.5c-0.3-0.3-0.7-0.4-1.1-0.4
			c-0.6,0-0.9,0.3-0.9,0.7c0,0.5,0.5,0.6,1.1,0.8c0.7,0.3,1.5,0.6,1.5,1.5c0,0.8-0.6,1.4-1.8,1.4
			C199.5,133.1,198.8,132.8,198.3,132.4z"/>
		<path class="st0" d="M204.4,128.1h0.7l0.1,0.7h0c0.5-0.5,1-0.8,1.6-0.8c1,0,1.5,0.7,1.5,1.9v3.1h-0.8v-3c0-0.9-0.3-1.3-0.9-1.3
			c-0.5,0-0.8,0.3-1.3,0.7v3.5h-0.8V128.1z"/>
		<path class="st0" d="M209.1,130.6c0-1.6,1.1-2.6,2.3-2.6s2.3,0.9,2.3,2.6c0,1.6-1.1,2.6-2.3,2.6S209.1,132.2,209.1,130.6z
			 M212.8,130.6c0-1.1-0.6-1.9-1.4-1.9s-1.4,0.8-1.4,1.9c0,1.1,0.6,1.9,1.4,1.9S212.8,131.7,212.8,130.6z"/>
		<path class="st0" d="M214.6,128.1h0.7l0.1,0.9h0c0.3-0.6,0.8-1,1.4-1c0.2,0,0.4,0,0.5,0.1l-0.2,0.7c-0.2-0.1-0.3-0.1-0.5-0.1
			c-0.4,0-0.9,0.3-1.2,1.1v3.1h-0.8V128.1z"/>
		<path class="st0" d="M217.7,128.1h0.7l0.1,0.7h0c0.4-0.5,0.9-0.8,1.5-0.8c0.7,0,1.2,0.4,1.3,0.9c0.5-0.5,1-0.9,1.6-0.9
			c1,0,1.5,0.7,1.5,1.9v3.1h-0.8v-3c0-0.9-0.3-1.3-0.9-1.3c-0.4,0-0.8,0.2-1.2,0.7v3.5h-0.8v-3c0-0.9-0.3-1.3-0.9-1.3
			c-0.4,0-0.8,0.2-1.2,0.7v3.5h-0.8V128.1z"/>
		<path class="st0" d="M225.4,131.7c0-1.1,0.9-1.6,3-1.8c0-0.6-0.2-1.2-1-1.2c-0.6,0-1.1,0.3-1.5,0.5l-0.3-0.6
			c0.5-0.3,1.1-0.6,1.9-0.6c1.2,0,1.7,0.8,1.7,2v3h-0.7l-0.1-0.6h0c-0.5,0.4-1,0.7-1.6,0.7C226,133.1,225.4,132.6,225.4,131.7z
			 M228.4,131.8v-1.4c-1.6,0.2-2.2,0.6-2.2,1.2c0,0.6,0.4,0.8,0.9,0.8C227.5,132.5,227.9,132.2,228.4,131.8z"/>
		<path class="st0" d="M230.4,132v-6.2h0.8v6.2c0,0.3,0.1,0.4,0.2,0.4c0,0,0.1,0,0.2,0l0.1,0.6c-0.1,0-0.3,0.1-0.5,0.1
			C230.7,133.1,230.4,132.7,230.4,132z"/>
	</g>
	<rect x="148" y="179" class="st13" width="49" height="56"/>
	<rect x="148" y="179" class="st14" width="49" height="8"/>
	<circle class="st0" cx="70" cy="113" r="6"/>
	<g transform="translate(-50 232)">
		<circle class="st0" cx="122" cy="-43" r="12"/>
		<circle class="st0" cx="105" cy="-40" r="9"/>
		<circle class="st0" cx="135" cy="-38" r="7"/>
		<rect x="105" y="-40" class="st0" width="30" height="9"/>
	</g>
</g>
</svg>
